<?xml version="1.0" encoding="UTF-8"?>
<!DOCTYPE svg PUBLIC "-//W3C//DTD SVG 1.1//EN" "http://www.w3.org/Graphics/SVG/1.1/DTD/svg11.dtd">
<!-- Creator: CorelDRAW 2019 (64-Bit) -->
<svg xmlns="http://www.w3.org/2000/svg" xml:space="preserve" width="215.9mm" height="279.4mm" version="1.1" style="shape-rendering:geometricPrecision; text-rendering:geometricPrecision; image-rendering:optimizeQuality; fill-rule:evenodd; clip-rule:evenodd"
viewBox="0 0 21590 27940"
 xmlns:xlink="http://www.w3.org/1999/xlink"
 xmlns:xodm="http://www.corel.com/coreldraw/odm/2003">
 <defs>
  <style type="text/css">
   <![CDATA[
    .fil8 {fill:#002B3B}
    .fil3 {fill:#011B28}
    .fil4 {fill:#025366}
    .fil1 {fill:#028399}
    .fil6 {fill:#0499AD}
    .fil7 {fill:#0C4455}
    .fil2 {fill:#207F93}
    .fil0 {fill:#5CB4C2}
    .fil10 {fill:#78A3B4}
    .fil11 {fill:#8CB0BD}
    .fil5 {fill:#9BD7DF}
    .fil9 {fill:white}
   ]]>
  </style>
 </defs>
 <g id="Capa_x0020_1">
  <metadata id="CorelCorpID_0Corel-Layer"/>
  <g id="_3212161164496">
   <path class="fil0" d="M13850.45 7627.32l4308.4 -6463.43 -2507.18 -8.38 994.16 10.69c-1020.76,1597.12 -2160.49,3246.29 -3220.14,4841.35 -307.13,462.29 -415.05,371.05 -117.59,818.12 167,250.98 358.4,572.19 542.35,801.65z"/>
   <polygon class="fil0" points="8325.64,7626.57 9072.83,6509.51 5530.48,1165.95 6525.57,1165.81 6536.46,1154.85 4023.09,1161.18 "/>
   <polygon class="fil0" points="10311.12,4573.22 11084,3495.81 11837.53,4611.91 14135.34,1169.44 12631.06,1171.4 11082.7,3482.5 9545.94,1166.87 8057.56,1168.67 "/>
   <polygon class="fil1" points="11837.53,4611.91 11090.78,5743.21 11068.67,5785.29 11835.4,6884.89 12599.93,5760.94 15646.89,1174.03 14135.34,1169.44 "/>
   <path class="fil2" d="M12599.93 5760.94c85.6,150.77 210.77,320.61 308.97,468.18 186.37,280.05 232.44,200.99 52.54,472.3 -100.81,152.05 -582,834.89 -615.73,943.41l745.23 1122.89 15.29 0 748.16 -1127.19 -3.94 -13.21c-183.95,-229.46 -375.35,-550.67 -542.35,-801.65 -297.46,-447.07 -189.54,-355.83 117.59,-818.12 1059.65,-1595.06 2199.38,-3244.23 3220.14,-4841.35l-994.16 -10.69 -1512.49 -0.2 -3.84 14.13 1511.55 4.59 -3046.96 4586.91z"/>
   <polygon class="fil1" points="6525.57,1165.81 9579.73,5745.46 10328.05,4618.9 10311.12,4573.22 8057.56,1168.67 8040.71,1151.92 6536.46,1154.85 "/>
   <polygon class="fil0" points="7075.69,11782.96 7081.45,11781.23 9071.98,8755.58 8320.36,7642.71 5567.14,11780.51 "/>
   <polygon class="fil0" points="13106.23,8767.72 15094.33,11781.26 15100.18,11782.89 16604.13,11783.61 13854.39,7640.53 "/>
   <polygon class="fil2" points="9072.83,6509.51 9089.42,6509.51 9578.58,5763.77 9579.73,5745.46 6525.57,1165.81 5530.48,1165.95 "/>
   <polygon class="fil3" points="9836.44,9914.31 10349.7,10658.8 11083.56,11777.64 11826.11,10658.79 12340.37,9914.55 11583.91,8781.45 11085,9508.86 10577.25,8771.12 "/>
   <polygon class="fil4" points="7081.45,11781.23 8582.73,11779.27 9822.64,9914.31 9087.5,8755.58 9071.98,8755.58 "/>
   <polygon class="fil4" points="12353.04,9914.55 13593.02,11779.3 15094.33,11781.26 13106.23,8767.72 13090.94,8767.72 "/>
   <polygon class="fil5" points="8057.56,1168.67 9545.94,1166.87 11082.7,3482.5 12631.06,1171.4 14135.34,1169.44 14139.18,1155.31 8040.71,1151.92 "/>
   <polygon class="fil6" points="11068.67,5785.29 10324.47,6881.22 9841.03,7615.15 9846.02,7656 10579.15,8756.61 11082.39,8025.56 11835.4,6884.89 "/>
   <path class="fil4" d="M11835.4 6884.89l-753.01 1140.67 504.87 731.74 758.45 -1112.47c33.73,-108.52 514.92,-791.36 615.73,-943.41 179.9,-271.31 133.83,-192.25 -52.54,-472.3 -98.2,-147.57 -223.37,-317.41 -308.97,-468.18l-764.53 1123.95z"/>
   <polygon class="fil7" points="8325.64,7626.57 8320.36,7642.71 9071.98,8755.58 9087.5,8755.58 9846.02,7656 9841.03,7615.15 9089.42,6509.51 9072.83,6509.51 "/>
   <polygon class="fil8" points="11587.26,8757.3 11583.91,8781.45 12340.37,9914.55 12353.04,9914.55 13090.94,8767.72 12345.71,7644.83 "/>
   <polygon class="fil2" points="10311.12,4573.22 10328.05,4618.9 11090.78,5743.21 11837.53,4611.91 11084,3495.81 "/>
   <polygon class="fil7" points="9579.73,5745.46 9578.58,5763.77 10324.47,6881.22 11068.67,5785.29 11090.78,5743.21 10328.05,4618.9 "/>
   <polygon class="fil0" points="9583.31,11785.43 12592.37,11785.42 11826.11,10658.79 11083.56,11777.64 10349.7,10658.8 "/>
   <polygon class="fil8" points="9087.5,8755.58 9822.64,9914.31 9836.44,9914.31 10577.25,8771.12 10579.15,8756.61 9846.02,7656 "/>
   <polygon class="fil7" points="7081.45,11781.23 7075.69,11782.96 9583.31,11785.43 10349.7,10658.8 9836.44,9914.31 9822.64,9914.31 8582.73,11779.27 "/>
   <polygon class="fil7" points="11826.11,10658.79 12592.37,11785.42 15100.18,11782.89 15094.33,11781.26 13593.02,11779.3 12353.04,9914.55 12340.37,9914.55 "/>
   <polygon class="fil8" points="9089.42,6509.51 9841.03,7615.15 10324.47,6881.22 9578.58,5763.77 "/>
   <path class="fil4" d="M16701.55 13837.72l1.06 1298.78 -133.89 14.33 3 125.12 422.49 -1.41 0.15 -128.16 -140.22 -6.88 5.35 -1046.53 766.17 1183.54 191.86 -1.64 2.31 -1438.43 132.15 -16.02 -2.07 -117.56 -417.29 -3.96 0.09 130.85 131.9 9.95 -4.18 926.51 -699.95 -1074.81c-27.13,17.83 -330.45,6.54 -386.16,6.38l2.43 125.25c50.31,3.57 89.32,-7.08 124.8,14.69z"/>
   <path class="fil4" d="M2182.47 13789.86c-65.76,-107.38 -93.6,-62.64 -279.26,-66.85 -192.92,-4.38 -139.32,-24.95 -157.25,120.59l132.25 19.6 -4.63 912.25 -677.76 -1050.22c-90.17,-3.2 -440.61,-53.64 -398.4,83.58 53.89,175.19 131.96,-182.14 131.95,353.12 -0.02,319.54 -0.2,639.07 0,958.61l-158.58 118.02 32.12 38.91 411.62 0.28 32.81 -39.64 -148.36 -126.95 -11.35 -996.36 748.82 1161.83 192.43 1 0.4 -1414.52 153.19 -73.25z"/>
   <polygon class="fil7" points="10579.15,8756.61 10577.25,8771.12 11085,9508.86 11583.91,8781.45 11587.26,8757.3 11082.39,8025.56 "/>
   <path class="fil4" d="M18444.49 14734.47c-72.02,-648.05 549.08,-616.41 610.72,-25.03 67.46,647.13 -546.05,606.83 -610.72,25.03zm216.77 -598.62c-801.86,118.3 -638.79,1281.14 200.28,1166.84 755.2,-102.87 622.6,-1288.25 -200.28,-1166.84z"/>
   <path class="fil4" d="M7672.78 14696.69c232.28,-62.54 210.62,-2.94 204.91,187.7 -3.8,127.05 -31.82,233.92 -176.67,248.38 -263.45,26.32 -340.9,-351.93 -28.24,-436.08zm475.62 448.48c0.17,-165.98 21.16,-657.87 -33.34,-785.26 -136.88,-319.92 -531.88,-103.14 -578.21,-125.38 -36.39,-17.46 -61.98,-214.33 -154.08,80.29 -21.53,68.92 -77.85,318.19 74.62,163.68 184.84,-187.33 422.79,-235.55 419.42,106.13 -1237.05,-62.94 -486.13,1162.87 -0.98,578.96l30.86 114.41 360.67 -27.71 -118.96 -105.12z"/>
   <path class="fil4" d="M5058.21 14995.84c-92.12,275.5 -499.44,109 -372.1,-167.12 78.16,-169.51 527.61,-297.9 372.1,167.12zm-530.51 -510.97c196.68,58.22 86.61,-87.79 299.21,-138.87 161.44,-38.79 292.52,68.31 235.07,232.13 -236.86,45.73 -720.02,-33.63 -653.69,439.2 51.74,368.71 415.39,333.58 659.93,145.38l30.27 114.92 340.85 -2.98 20.59 -46.71 -117.7 -83.71c-0.85,-421.88 93.06,-1268.7 -632.28,-889.35 -1.47,-72.35 42.48,-52.39 -30.06,-83.73 -66.96,-28.94 -59.74,-0.21 -79.06,60.63 -20.78,65.39 -64.65,189.66 -73.13,253.09z"/>
   <path class="fil4" d="M2828.48 14308.53c383.75,-109.2 562,773.65 214.18,869.38 -406.22,111.82 -584.62,-763.97 -214.18,-869.38zm675.26 537.96c125.44,-783.47 -1038.34,-902.1 -1149.47,-208.67 -126.81,791.21 1037.39,908.79 1149.47,208.67z"/>
   <path class="fil4" d="M9260.87 13875.67c43.24,-81.36 445.55,29.46 542.4,201.78 96.09,171 77.06,450.45 -55.53,598.56 -127.51,142.43 -439.26,202.56 -480.58,-47.9 -9.11,-55.2 -14.63,-736.73 -6.29,-752.44zm-324.11 1344.04l10.27 56.67 472.55 -0.09 9.25 -58.35 -168.43 -28.5 -0.35 -342.53c919.99,204.32 1023.58,-899.61 381.48,-1055.64 -165.6,-40.26 -385.04,-20.3 -558.74,-25.04 -122.1,-3.33 -239.72,56.8 -73.73,88.12 125.27,23.65 83.73,19.3 82.23,195.31 -3.01,353.25 25.69,797.46 -4.66,1129.01l-149.87 41.04z"/>
   <path class="fil4" d="M20937.75 15143.35c-40.67,23.66 -73.08,14.42 -127.7,14.39l0.02 112.28 563.19 -0.08 -0.65 -110.1c-54.5,-3.35 -96.5,7.25 -131.75,-15.4l-0.56 -1440.72c-99.94,-15.97 -193.54,91.77 -276.15,142.55 -144.62,88.86 -205.98,30.47 -188.92,210.78l162.28 -53.12 0.24 1139.42z"/>
   <path class="fil4" d="M12310.23 14858.93c-27.75,201.86 -142.95,388.6 -372.12,367.8 -258.95,-23.5 -210.93,-354.57 -210.96,-542.05 -0.01,-102.76 -37.29,-247.59 59.88,-308.66 90.2,-56.69 206.69,-80.76 307.68,-39.02 191.15,78.97 240.72,338.7 215.52,521.93zm-513.56 -1112.08l-361.73 152.99 18.95 57.55 112.38 -25.17c32.41,244.66 7.32,792.42 3.01,1063.98 -5.75,361.84 444.68,376.91 669.28,217.32 231.52,-164.53 312.5,-521.66 189.34,-773.59 -179.71,-367.62 -439.82,-224.01 -729.13,-124.27l97.9 -568.81z"/>
   <path class="fil9" d="M9260.87 13875.67c-8.34,15.71 -2.82,697.24 6.29,752.44 41.32,250.46 353.07,190.33 480.58,47.9 132.59,-148.11 151.62,-427.56 55.53,-598.56 -96.85,-172.32 -499.16,-283.14 -542.4,-201.78z"/>
   <path class="fil9" d="M12310.23 14858.93c25.2,-183.23 -24.37,-442.96 -215.52,-521.93 -100.99,-41.74 -217.48,-17.67 -307.68,39.02 -97.17,61.07 -59.89,205.9 -59.88,308.66 0.03,187.48 -47.99,518.55 210.96,542.05 229.17,20.8 344.37,-165.94 372.12,-367.8z"/>
   <path class="fil9" d="M18444.49 14734.47c64.67,581.8 678.18,622.1 610.72,-25.03 -61.64,-591.38 -682.74,-623.02 -610.72,25.03z"/>
   <path class="fil9" d="M2828.48 14308.53c-370.44,105.41 -192.04,981.2 214.18,869.38 347.82,-95.73 169.57,-978.58 -214.18,-869.38z"/>
   <path class="fil4" d="M15328.48 14678.06c280.1,-55.1 275.32,-6.98 261.13,228.1 -8.4,139.36 -76.03,264.75 -225.75,283.9 -312.76,39.99 -411.42,-438.01 -35.38,-512zm419.47 492.41c0.33,-241.3 77.42,-842.74 -170.61,-943.73 -102.79,-41.83 -413.14,45.11 -418.11,40.53 -16.05,-14.74 -52.89,-157.19 -95.94,10.91 -13.51,52.72 -61.07,180.56 -24.74,212.44 106.66,26.94 84.09,-190.64 331.92,-202.8 212.87,-10.45 220.14,141.6 219.98,310.04 -1337.28,-18.15 -408.65,1148.06 -2.13,549.58l22.34 131.72 257.33 -5.13 10.5 -48.17 -130.54 -55.39z"/>
   <path class="fil4" d="M6332.34 14495.81c45.99,-106.41 221.65,-367.56 12.89,-289.93 -138.68,51.58 -194.91,-151.97 -362.05,165.48l-211.08 -187.2c-39.15,40.65 -182.56,211.54 -184.82,259.12l157.86 17.17 0.96 683.75 -117.67 83.68 20.74 47.63 493.04 -0.41 3.67 -94.39 -130.74 -20.52c37.1,-236.41 -184.63,-860.49 317.2,-664.38z"/>
   <path class="fil4" d="M10488.02 14214.1c-39.4,1.61 -194.8,47.94 -230.74,66.61 -184.44,95.86 51.27,66.74 65.94,97.68 20.22,42.64 3.2,503.65 4.7,593.31 7.85,473.6 418.68,354.68 684.99,164.54l6.31 142.04 272.77 -2.44 14.61 -42.77 -131.35 -63.16c0,-106.4 8.02,-939.67 -5,-970.25l-291.15 121.35 19.62 52.44 116.41 -14.3 -1.9 674.38c-113.45,127.63 -482.78,254.12 -521.18,-2.15 -28.22,-188.33 -3.34,-604.27 -4.03,-817.28z"/>
   <path class="fil4" d="M4057.35 14360.97c142.81,-15.15 204.37,47.9 201.95,-138.23l-203.09 -2.12 -27.67 -255.87 -372.89 358.13 128.75 46.54c-16.33,90.38 -41.89,813.73 73.93,899.86 100.43,74.68 272.83,33.57 370.77,-27.67 221.46,-138.5 -40.73,-113.5 -164.12,-111.02l-7.63 -769.62z"/>
   <path class="fil4" d="M6941.21 14181.85c-84.91,13.83 -197.88,55.1 -283.85,79.05 -247.8,69.02 1.71,128.32 5.06,149.93 9.35,120.73 -15.01,680.27 6.39,739.66l-110.13 39.38 8.1 88.32 466.17 -2.65 20.58 -48.19 -121.24 -82.07 8.92 -963.43z"/>
   <path class="fil4" d="M14721.52 14374.6c-121.51,-293.43 -777.03,-227.94 -883.28,261.43 -102.58,472.41 309.56,849.59 731.74,606.12 36.69,-21.15 213.8,-133.81 139.53,-179.53 -30.66,-18.86 -160.47,85.77 -239.13,104.91 -207.45,50.46 -381.03,-67.29 -462.41,-254.2 -184,-422.56 209.97,-886.01 604.34,-435.38l109.21 -103.35z"/>
   <path class="fil9" d="M6647.69 16215.6c59.44,361.76 588.15,344.27 515.54,-157.55 -55.28,-382.11 -600.67,-360.61 -515.54,157.55z"/>
   <path class="fil4" d="M12933.93 14011.5c-6.06,-297.08 119.89,-57.27 101.65,-265.79l-393.17 154.44 18.93 57 113.62 -24.18 3.32 1246.61 -132.02 46.2 11 50.28 395.19 -0.02 11.01 -50.32 -128.68 -55.32 -0.85 -1158.9z"/>
   <path class="fil9" d="M9484.99 15832.94c-14.45,102.62 -11.07,421.55 -4.4,533.33 9.95,166.82 282.96,71.12 351.15,-12.88 240.14,-295.78 -100.33,-678.6 -346.75,-520.45z"/>
   <path class="fil9" d="M1517.35 15829.8c-13.99,53.67 -10.83,457.19 -6.73,534.82 8.85,167.34 271.75,75.39 346.98,-8.89 226.34,-253.52 -35.23,-677.39 -340.25,-525.93z"/>
   <path class="fil9" d="M14421.86 15811.84c-88.07,20.22 -56.06,115.35 -56.01,204.6 0.06,91.37 0.42,182.85 -0.15,274.19 -0.62,98.85 -16.86,161.91 106.53,163.12 76.21,0.73 149.37,-18.98 208.56,-67.3 236.78,-193.31 90.61,-654.86 -258.93,-574.61z"/>
   <path class="fil9" d="M14228 17447.79c73.94,321.74 538.86,250.51 448.38,-180.19 -71.24,-339.07 -550.09,-262.38 -448.38,180.19z"/>
   <path class="fil9" d="M9660.1 17071.67c-275.46,83.49 -190.43,659.39 146.55,564.56 273.76,-77.03 193.83,-667.71 -146.55,-564.56z"/>
   <path class="fil9" d="M15328.48 14678.06c-376.04,73.99 -277.38,551.99 35.38,512 149.72,-19.15 217.35,-144.54 225.75,-283.9 14.19,-235.08 18.97,-283.2 -261.13,-228.1z"/>
   <path class="fil4" d="M13529.94 14201.34c-55.25,11.9 -240.09,66.77 -267.55,102.58 -134.98,176 111.68,-89.93 106.3,166.8 -4.87,232.76 -2.22,466.24 1.09,706.08l-136.18 55.97 14.58 44.08 395.46 -0.01 14.14 -45.07 -133.51 -47.85 5.67 -982.58z"/>
   <path class="fil9" d="M7344.52 17070.56c-84.24,19.04 -53.8,102.4 -53.67,190.54 0.43,289.8 -39.7,380.04 100.7,377.44 62.46,-1.16 132.19,-20.52 181.03,-60.1 204.09,-165.38 74.96,-576.39 -228.06,-507.88z"/>
   <path class="fil6" d="M12211.82 17040.38c40.81,53.05 88.31,-0.53 96.14,107.91 4.37,60.29 -3.67,149.94 -6.07,212.9 -16.87,444.8 -54.07,194.41 -91.89,306.6l196.54 0.39c-27.12,-78.38 -77.94,43.14 -68.87,-207.97 3.13,-86.7 1.91,-189.06 11.12,-273.38 72.08,80.12 170.04,449.02 244.85,487.98 62.41,-43.65 175.13,-423.12 242.97,-521.03 4.88,97.49 4.87,196.28 7.88,294.01 7.91,256.49 -36.29,144.02 -61.54,220.79l230.45 -10.49c-92.33,-73.74 -86.87,59.38 -96.62,-296.83 -12.69,-463.73 18.74,-209.54 78.01,-325.99l-160.57 6.3 -232.07 510.77 -232.31 -515.13 -158.02 3.17z"/>
   <path class="fil6" d="M14421.86 15811.84c349.54,-80.25 495.71,381.3 258.93,574.61 -59.19,48.32 -132.35,68.03 -208.56,67.3 -123.39,-1.21 -107.15,-64.27 -106.53,-163.12 0.57,-91.34 0.21,-182.82 0.15,-274.19 -0.05,-89.25 -32.06,-184.38 56.01,-204.6zm-229.07 -26.46c120.16,43.64 87.85,106.09 87.85,343.09 0.02,460.42 -8.01,251.51 -92.99,347 32.44,16.89 682.43,124.58 707.04,-347.92 25.73,-494.66 -701.38,-342.39 -701.9,-342.17z"/>
   <path class="fil6" d="M4520.01 16116.52l0.72 -301.3c314.28,-62.51 304.85,352.2 -0.72,301.3zm2.29 41.88c192.73,-7.34 143.69,162.3 282.67,328.15l167.7 -9.58c-23.82,-35.66 -77.13,-7.88 -158.23,-147.76 -32.91,-56.74 -91.53,-136.91 -98.92,-199.3 65.07,-45.38 100.05,-48.22 126.08,-137.98 21.28,-73.37 4.3,-135.04 -57.81,-179.89 -73.24,-52.88 -386.14,-56.3 -443.01,-25.26 108.08,79.31 91.01,-70.99 90.97,354.14 -0.06,462.76 -19.67,234.45 -86.19,334.74 36.04,22.52 223.17,26.99 266.19,-0.09 -52.31,-52.92 -93.56,22.95 -95.02,-109.36 -0.73,-66.36 -4.72,-143.56 5.57,-207.81z"/>
   <path class="fil6" d="M1517.35 15829.8c305.02,-151.46 566.59,272.41 340.25,525.93 -75.23,84.28 -338.13,176.23 -346.98,8.89 -4.1,-77.63 -7.26,-481.15 6.73,-534.82zm-179.59 -44.39c117.93,47.27 86.69,94.04 86.69,343.06 0.01,464.41 -6.5,252.35 -91.81,346.83 70.89,37.4 401.78,18.19 494.11,-25.9 127.55,-60.9 205.14,-180.74 213.21,-321.58 28.25,-493.25 -701.17,-342.88 -702.2,-342.41z"/>
   <path class="fil6" d="M9484.99 15832.94c246.42,-158.15 586.89,224.67 346.75,520.45 -68.19,84 -341.2,179.7 -351.15,12.88 -6.67,-111.78 -10.05,-430.71 4.4,-533.33zm-180.42 -47.52c55.62,23.27 90.33,25.42 90.51,117.85l-0.29 450.31c-2.4,140.6 -43.95,64.86 -95.81,120.97 27.05,15.36 684.41,128.7 709.45,-345.59 8.66,-163.84 -60.16,-281.29 -217.72,-333.64 -80.97,-26.9 -425.98,-39.53 -486.14,-9.9z"/>
   <path class="fil9" d="M5058.21 14995.84c155.51,-465.02 -293.94,-336.63 -372.1,-167.12 -127.34,276.12 279.98,442.62 372.1,167.12z"/>
   <path class="fil6" d="M6647.69 16215.6c-85.13,-518.16 460.26,-539.66 515.54,-157.55 72.61,501.82 -456.1,519.31 -515.54,157.55zm-108.39 -24.9c53.05,455.91 791.56,408.85 728.9,-124.4 -53.85,-458.29 -789.59,-397.08 -728.9,124.4z"/>
   <path class="fil9" d="M7672.78 14696.69c-312.66,84.15 -235.21,462.4 28.24,436.08 144.85,-14.46 172.87,-121.33 176.67,-248.38 5.71,-190.64 27.37,-250.24 -204.91,-187.7z"/>
   <path class="fil6" d="M18498.19 17629.43c-27.94,-62.44 -15.89,-203.97 -14.49,-277.35 328.79,-46.21 321.12,346.28 14.49,277.35zm-9.04 -556.21c219.29,-102.52 327.34,304.67 -6.68,233.97l6.68 -233.97zm-169.05 -20.8l79.84 26.97c16.22,81 6.61,252.16 6.67,343.52 0.22,345.26 -55.53,155.03 -81.56,241.67 617.21,84.5 564.15,-274.02 351.38,-339.52 41.57,-39.7 97.55,-56.77 105.52,-126.75 28.44,-249.91 -460.19,-151.21 -461.85,-145.89z"/>
   <path class="fil6" d="M8336.65 15787.29c131.1,98.92 91.86,-117.36 100.22,453.78 2.54,173.86 98.84,265.44 274.28,259.93 178,-5.6 264.69,-113.64 267.25,-285.12 7.82,-524.9 -20.08,-339.01 101.98,-425.72 -24.81,-21.61 -161.64,-19.46 -208.03,-15.38l-52.38 13.88c76.18,56.61 113.52,-15.02 114.44,139.83 1.39,238.2 41.94,509.16 -198.4,513.79 -257.49,4.96 -214.41,-253.08 -213.42,-513.68 0.54,-144.37 19.8,-90.04 100.69,-137.49 -44.59,-32.88 -234.84,-31.61 -286.63,-3.82z"/>
   <path class="fil6" d="M20472.28 15891.95c34.96,47.38 85.68,221.69 99.74,287.83l-209.87 -4.44 110.13 -283.39zm-196.71 545.26c-4.31,-58.82 36.32,-179.94 83.23,-214.1l224 2.28c28.04,39.9 45.35,105.22 60.33,155.82 28.38,95.95 -25.79,49.96 -66.73,94.39 36.14,21.05 235.96,16.02 269.38,0.87 -37.33,-57.95 -69.22,18.17 -121.46,-140.54 -33.07,-100.46 -178.72,-545.23 -203.36,-578.73 -70.72,11.87 -87.26,113.34 -111.7,172.92l-166.25 406.34c-62.14,152.45 -99.9,90.69 -132.45,139.82 37.28,18.84 202.58,25.22 243.66,-9.24l-78.65 -29.83z"/>
   <path class="fil6" d="M15154.21 15787.26c111.42,77.27 94.5,-65.52 94.5,353.66 0,407.25 2.39,254.27 -104,332.96 50.28,31.72 435.41,24.14 513.79,8.03 9.2,-46.93 40.33,-132.41 8.85,-170.58 -42.4,52.72 -35.98,105 -110.79,129 -56.82,18.22 -156.8,21.77 -203.02,-10.27 -34.54,-49.02 -20.84,-218.02 -18.06,-285.02 216.45,-17.98 250.23,57.1 255.96,-42.23 -54.16,-39.29 -184.49,-4.81 -257.16,-12.49 -0.13,-69 -23.92,-224.98 15.04,-269.41 34.45,-23.34 145.77,-18.55 193.23,-2.46 81.96,27.81 35.13,88.7 87.47,123.36 24.1,-34.41 20.37,-116.66 16.62,-164.13 -77.22,-8.6 -444.3,-18.56 -492.43,9.58z"/>
   <path class="fil6" d="M12540.03 15900.45c38.05,42.56 85.6,212.5 101.25,276.92l-209.12 2.03 107.87 -278.95zm-195.37 540.13c-4.58,-73.21 41.69,-145.14 62.57,-217.07l248.64 4.64c27.12,49.81 63.13,156.62 61.35,212.77 -47.25,28.04 -49.4,-0.78 -70.21,42.84l266.16 2.68c-4.08,-52.02 -66.94,1.35 -118.59,-147.78l-201.02 -579.57c-71.66,4.93 -91.16,109.47 -114.43,167.86 -27.23,68.4 -55.25,135.13 -83.16,203.01 -188.97,459.48 -125.74,240.73 -220.13,353.98l242.86 -7.41c-24.18,-39.83 -21.93,-6.86 -74.04,-35.95z"/>
   <path class="fil6" d="M18653.43 15787.36c106.4,78.9 95.95,-80.02 95.71,353.56 -0.25,484.29 -40.59,230.37 -102.48,333.64 30.38,22.14 444.44,18.23 511.08,8.75 10.57,-52.67 34.32,-138.28 18.52,-171.97 -57.82,37.73 -27.85,103.02 -121.92,129.93 -60.1,17.21 -154.5,18.65 -203.96,-11.13 -26.48,-53.82 -21.13,-223.12 -10.18,-285.84 52,-2.88 106.51,-0.84 158.94,3.87 85.01,7.62 87.13,25.25 91.67,-46.43 -52.88,-34.72 -184,-8.31 -255.35,-8.15 -0.81,-73.07 -14.94,-219.89 11.57,-280.55 42.64,-4.6 155.59,-8.17 193.31,5.23 70.57,25.09 47.29,82.44 86.49,123.79 26.93,-32.14 23.11,-112.79 22.75,-163.66 -70.32,-10.44 -456.29,-16.57 -496.15,8.96z"/>
   <path class="fil6" d="M7344.52 17070.56c303.02,-68.51 432.15,342.5 228.06,507.88 -48.84,39.58 -118.57,58.94 -181.03,60.1 -140.4,2.6 -100.27,-87.64 -100.7,-377.44 -0.13,-88.14 -30.57,-171.5 53.67,-190.54zm-208.33 -26.68c106.72,51.38 77.91,89.41 77.93,316.8 0.01,442.17 -38.61,199.55 -78.39,302.08 92.19,21.89 340.15,16.4 432.13,-26.6 237.11,-110.82 271.27,-484.6 2.59,-578.9 -76.08,-26.7 -366.62,-35.31 -434.26,-13.38z"/>
   <path class="fil6" d="M17061.31 15787.67c73.04,54.27 97.03,-13.36 96.41,128.29l-0.33 449.48c-5,126.18 -74.42,59.54 -103.05,109.02 29.91,22.4 443.23,17.83 510.45,9.15 7.51,-32.32 34.43,-138.92 18.67,-172.53 -51.68,36.74 -37.6,99.97 -112.53,127.49 -56.55,20.76 -152.77,17.6 -208.31,-2.56 -37.68,-63.25 -22.72,-206.24 -19.71,-287.58 172.38,-38.61 247.69,69.48 255.91,-46.77 -54.39,-34.35 -183.11,-8.04 -255.44,-8.24 -0.92,-73.15 -14.99,-219.94 11.69,-280.8 339.13,-30.78 204.21,104.1 294.73,125.91l7.35 -160.31c-70.36,-9.89 -456.91,-16.39 -495.84,9.45z"/>
   <path class="fil6" d="M9660.1 17071.67c340.38,-103.15 420.31,487.53 146.55,564.56 -336.98,94.83 -422.01,-481.07 -146.55,-564.56zm385.94 376.12c128.33,-453.13 -521.88,-587.65 -625.49,-187.07 -116.85,451.82 513.82,581.43 625.49,187.07z"/>
   <path class="fil6" d="M14228 17447.79c-101.71,-442.57 377.14,-519.26 448.38,-180.19 90.48,430.7 -374.44,501.93 -448.38,180.19zm-98.99 -37.33c44.25,392.84 697.8,360.45 644.69,-112.44 -44.95,-400.02 -698.58,-365.83 -644.69,112.44z"/>
   <path class="fil6" d="M11436.34 16276.65c-72.8,45.86 -64.77,234.6 -312.7,175.61 -142.12,-33.8 -205.99,-161.39 -215.41,-298.33 -9.64,-140.13 36.36,-286.93 178.86,-336.8 284.48,-99.55 267.72,118.08 324.37,148.11 23.91,-39.08 17.85,-132.81 12.05,-182.64 -275.47,-63.24 -626.38,11.76 -621.63,358.39 4.39,320.25 375.07,447.14 615.37,319.61 13.11,-48.26 39.64,-149.76 19.09,-183.95z"/>
   <path class="fil6" d="M2837.43 16283.11c-24.5,38.74 -10.27,61.21 -0.28,120.31 9.57,56.66 -0.35,63.79 55.56,80.89 300.32,91.8 485.15,-175.89 316.62,-329.59 -95.24,-86.86 -305.95,-95.24 -281.09,-258.99 13.43,-88.52 102.69,-110.61 178.97,-87.69 95.57,28.75 71.01,112.13 116,146.63 25.57,-34.11 21.96,-123.71 14.34,-172.36 -417.61,-89.72 -548.73,220.42 -224.68,370.16 99.68,46.07 263.65,156.48 124.33,275.38 -53.96,46.03 -143.41,38.01 -199.63,-1.6 -58.35,-41.11 -58.03,-100.05 -100.14,-143.14z"/>
   <path class="fil6" d="M3509.42 15952.69c87.79,-39.14 -52.31,-143.81 249.42,-141.37l-10.92 615.87c-58.32,62.8 -69.73,-4.45 -87.63,59.78 78.85,-0.36 225.71,21.54 284.74,-11.13 -38.74,-53.41 -96.46,13.77 -102,-97.06l3.25 -563.22c260.56,-37.29 168.36,107.74 252.39,136.16l6.88 -177.07 -609.64 3.59 13.51 174.45z"/>
   <path class="fil6" d="M16671.46 16475.78c-29.17,-50.68 -95.09,20.74 -104.15,-86.14l4.37 -576.26c269.14,-28.09 166.14,86.5 240.54,141.08 24.05,-36.02 19.33,-126.84 16.36,-179.79l-604.4 3.17c-3.12,51.12 -10.35,141.39 15.61,176.68 89.12,-89.45 -46.57,-146.11 242.2,-143.09 0.58,130.56 0.12,261.15 0.15,391.72 0.09,363.45 -47.34,181.21 -100.49,272.41 30.91,19.97 259.09,19.12 289.81,0.22z"/>
   <path class="fil6" d="M18263.75 16475.71c-28.47,-50.77 -95.17,21.4 -104.34,-85.87 -4.72,-55.19 0.53,-140.54 0.54,-199.14 0,-99.66 -10.64,-288.91 4.28,-377.61 271.7,-25.4 165.67,89.99 240.84,141.27 23.45,-36.66 18.49,-126.69 15.71,-179.69l-604.35 3.13c-3.32,51.35 -10.55,142.14 16.2,176.78 91.23,-101.09 -40.59,-146.89 241.53,-143.08 0.25,130.54 0.1,261.11 0.13,391.65 0.08,364.87 -41.77,178.15 -100.27,272.1 29.77,19.7 259.02,19.92 289.73,0.46z"/>
   <path class="fil6" d="M5699.6 15951.33c92.18,-31.16 -66.92,-140.52 250.98,-140.3 -0.39,130.68 0.02,261.43 0.05,392.12 0.05,391.58 -39.24,185.27 -99.85,272.82 29.22,17.18 256.91,21.27 290.56,-0.44 -46.64,-50.6 -96.7,19.31 -105.52,-84.92l2.52 -574.5c262.28,-44.49 171.92,102.51 252.65,136.99l6.75 -178.54 -608.95 4.74 10.81 172.03z"/>
   <path class="fil6" d="M13495.18 17080.11c86.91,-52.41 213.04,12.61 214.84,131.32 2.05,136.46 -94.47,177.61 -221.57,156.8l6.73 -288.12zm-161.41 -38.83c95.52,92.46 78.16,0.6 78.19,319.4 0.04,438.42 -34.23,202.33 -77.12,303.89 54.54,7.33 212.27,15.28 251.32,-6.82 -33.32,-24.14 -148.33,21.43 -91.75,-244.5 81.25,-20.69 145.1,23.28 238.43,-58.22 156.77,-136.89 59.76,-407.73 -399.07,-313.75z"/>
   <path class="fil6" d="M15944.76 17368.55c-5.53,-34.17 -10.69,-241.23 -2.74,-268.55 11.5,-39.42 48.46,-38.07 93.75,-32 206.46,27.73 170.56,340.72 -91.01,300.55zm-159.66 -326.99c40.86,41.33 79.61,30.41 79.67,118.84 0.05,66.59 -0.92,133.55 -0.92,200.28 0.01,438.58 -33.35,202.74 -77.42,303.64 54.56,7.74 212.93,15.33 251.64,-6.65 -34.59,-24.75 -147.27,22.3 -92.03,-244.65 81.69,-20.76 143.87,24.39 238.73,-57.61 61.4,-53.05 83.37,-129.69 56.99,-207.45 -49.31,-145.29 -341.57,-130.67 -456.66,-106.4z"/>
   <path class="fil6" d="M20182.52 17146.59c34.7,42.11 79.29,186.16 86.17,247.16l-179.25 2.11 93.08 -249.27zm-113.15 288.24l220.18 1.29 52.47 187.53 -62.76 43.42 236.56 -9.16c-31.41,-53.53 -57.22,34.75 -108.79,-121.71 -29.8,-90.39 -156.2,-484.07 -183.74,-514.54 -70.04,21.63 -191.38,393.8 -244.91,518.77 -49.12,114.72 -102.11,87.56 -113.39,127.06l213.57 -10.77 -77.94 -36.3 68.75 -185.59z"/>
   <path class="fil6" d="M16556.39 17042.03c100.37,106.98 86.93,-105.12 89.14,393.58 0.71,158.19 72.95,250.89 240.46,245.6 292.05,-9.23 234.49,-288.85 237.58,-508.12 2.16,-153.61 61.96,-70.87 94.99,-132.37 -64.48,-9.99 -193.4,-15.76 -236.73,8.85 75.89,46.35 102.17,-1.02 103.18,123.46 1.77,215.1 36.91,460.83 -184.78,456.51 -211.98,-4.13 -187.85,-218.35 -179.52,-469.15 4.16,-125.43 60.88,-62.89 89.48,-123.23l-253.8 4.87z"/>
   <path class="fil6" d="M17522.96 17046.29c92.28,76.69 84.71,-56.62 84.34,314.39 -0.35,350.26 9.1,234.59 -91.41,297.73 66.17,26.12 357.76,11.07 451.32,9.41 6.23,-27.08 12.47,-55.33 17.99,-82.61 16.16,-80.05 1.24,-66.72 -3.74,-74.26 -41.2,39.77 -38.84,174.8 -286.97,112.2 -18.42,-66.08 -16.83,-188.19 -7.4,-257.77 42.26,-2.63 85.46,-0.98 128.1,2.32 59.17,4.6 73.75,19.12 94.8,-19.47 -19.24,-50.55 17.47,-18.36 -39.45,-32.29l-186.8 4.13 0.5 -245.27c272.37,-40.97 211.45,64.98 260.39,110.56 21.53,-31.67 18.58,-103.5 14.84,-146.65 -75.13,-5.79 -387.72,-17.95 -436.51,7.58z"/>
   <path class="fil6" d="M11595.71 17146.25c35.01,40.35 80,187.93 86.69,249.94l-182.3 -3.91 95.61 -246.03zm-111.43 288.86l218.28 -0.02 53.68 188.09 -63.23 43.84 236.57 -9.08c-52.37,-88.78 -22.84,134.97 -169.65,-297.35 -23.58,-69.43 -87.97,-300.44 -123.1,-338.95 -70.56,22.02 -191.64,395.24 -244.47,519.31 -46.82,109.99 -102.65,88.48 -113.86,126.57l213.6 -10.79 -77.94 -36.84 70.12 -184.78z"/>
   <path class="fil6" d="M5996.86 17145.07c32.05,39.01 82.35,195.44 86.91,251.34l-181.74 -4.69 94.83 -246.65zm-172.98 476.85c1.5,-57.39 34.88,-133.23 61.88,-186.87l217.82 -0.06 55.26 190.03 -64.68 41.12 235.05 0c-15.72,-55.2 -57.69,14.4 -104.26,-121.52 -32.42,-94.62 -158.29,-498.65 -189.36,-521.76 -66.77,23.4 -188.13,394.17 -242.44,518.45 -49.7,113.7 -102.76,89.37 -113.37,125.85l213.96 -10.66 -69.86 -34.58z"/>
   <path class="fil6" d="M4158.21 17046.01c92.14,77.96 84.95,-58.13 84.44,314.67 -0.49,351.67 9.62,234.18 -91.72,297.74 61,23.42 363.51,10.93 451.49,9.41l24.15 -122.34c-1.4,-52.37 5.54,-11.04 -10.01,-34.41 -35.91,35.83 -44.24,178.14 -286.53,111.38 -18.92,-64.32 -16.26,-188.41 -7.62,-256.95 190.88,-13.36 207.93,47.55 223.54,-32.51 -36.86,-27.56 -60.73,-17.77 -115.66,-15.4 -36.87,1.58 -71.31,2.92 -110.8,0.59l0.39 -242.71c267.59,-45.67 215.9,69.34 259.74,109.98 22.09,-31.39 18.88,-102.87 15.77,-146.83 -69.96,-4.63 -394.51,-14.21 -437.18,7.38z"/>
   <path class="fil6" d="M2516.49 17052.36l79.58 27.99c15.5,79.7 6.46,241.36 6.4,330.11 -0.2,295.54 0.84,185.44 -90.52,247.33 61.5,29.9 356.17,10.6 451.99,10.86l22.72 -155.01c-53.38,19.22 -29.84,80.26 -98.25,109.11 -44.82,18.92 -143.78,19.07 -186.08,-0.32 -44,-46.99 -28.59,-185.52 -21.05,-255.93 42.91,-4.66 87.76,-2.35 131.24,1.04 73.39,5.75 80.32,24.47 93.82,-34.73 -40.04,-26.75 -62.53,-17.54 -118.81,-15.15 -37.03,1.57 -69.81,3.35 -108.69,-0.72l2.33 -238.05c231.43,-70.76 238.91,86.6 255.81,106.56 23.96,-30.25 21.09,-99.09 20.68,-145.52 -67.28,-8.23 -396.72,-17.14 -441.17,12.43z"/>
   <path class="fil6" d="M8103.92 17040.65c42.3,54.86 73.15,-7.37 83.34,83.07l-3.84 494.59 -86.5 48.65 450.3 1c11.58,-50.13 35.51,-124.52 14.04,-156.78 -46.84,43.15 -32.59,172.44 -294.19,111.81l-0.08 -257.68c144.48,-9.28 195.18,34.42 222.19,-17.08 -24.18,-65.75 -66.08,-21.42 -225.14,-29.78l0.31 -243.72c262.82,-37.8 176.34,29.91 268.42,111.6l6.29 -150.08 -435.14 4.4z"/>
   <path class="fil6" d="M7840.96 15787.84c86.35,64.56 95.42,-29.52 93.79,166.11 -1.09,130.96 22.33,668.4 -37.1,704.07 -89.18,18.69 -179.08,-84.03 -166.85,39.81 75.48,63.66 187.74,17.88 237.03,-55.73 61.71,-92.15 53.14,-182.59 52.24,-289.59 -6.56,-780.44 41.18,-447.02 90.96,-572.44 -54.26,-10.12 -229.6,-18.71 -270.07,7.77z"/>
   <path class="fil6" d="M13394.75 15776.93c-48.67,-3.43 -93.19,-1.13 -141.78,-2.03 -147.53,-2.7 -104.18,-1.48 -126.68,22.18l84.28 25.87c17.43,82.67 7.11,273.32 7.11,367.75 0.03,370.71 -17.09,196.38 -91.53,285.4 61.4,30.13 389.06,13 484.93,10.51 7.96,-48.79 40.31,-132.56 14.13,-178.21 -40.17,41.64 -46.74,108.19 -110.41,130.86 -58.1,20.69 -150.59,21.66 -197.88,-14.28 -26.94,-56.54 -13.55,-282.31 -13.56,-358.74 -0.05,-401.66 33.36,-182.9 91.39,-289.31z"/>
   <path class="fil6" d="M10979.37 17485.77c-83.45,32.06 -63.08,209.05 -292.43,150.59 -235.46,-60.01 -252.62,-481.97 -22.47,-561.81 248.55,-86.23 246.63,116.62 291.97,130.93l4.5 -155.18c-97.99,-51.59 -287.33,-30.05 -385.17,22.24 -111.65,59.66 -167.01,161.28 -166.23,288.22 2.02,333.22 391.41,369.67 544.7,285.29l25.13 -160.28z"/>
   <path class="fil6" d="M19698.18 15774.45l-268.72 7.54c47.78,55.54 92.85,3.16 93.64,121.33l-0.28 450.07c-2.6,137.19 -58.23,67.01 -94.73,122.48 42.82,25.35 405.47,15.2 486.35,9.63l27.31 -171.82c-70.56,26.4 -27.34,91.55 -119.9,124.44 -57.94,20.6 -154.09,23.04 -197.88,-10.86 -26.18,-29.79 -21.15,-493.14 -15.58,-548.95 11.24,-112.76 62.38,-39.06 89.79,-103.86z"/>
   <path class="fil6" d="M3310.31 17195.06c72.43,-32.97 -14.28,-157.34 220.82,-119.95 0.08,115.92 -0.06,231.86 0,347.8 0.13,294.29 -9.34,172.08 -90.63,235.56 45.97,25.47 215.65,20.18 258.5,-5.2l-91.59 -33.69 -0.83 -548.79c241.37,-4.8 133.96,31.07 213.95,126.37 23.34,-32.9 19.66,-113.13 15.91,-160.45l-538.17 2.66 12.04 155.69z"/>
   <path class="fil6" d="M1679.61 17196.34c71.74,-106.06 -5.43,-137 211.2,-124.34 0,112.82 -0.02,225.64 0,338.46 0.01,295.72 4.02,188.04 -88.87,247.04 47.67,23.02 208.05,22.27 255.48,-0.27 -57,-35.2 -85.35,4.06 -91.73,-83.82l0.75 -503.44c225.42,0.09 131.75,6.23 211.46,126.63 25.09,-29.96 22.31,-109.07 21.44,-159.76l-536.29 1.76c-4.22,42.61 -12.61,125.54 16.56,157.74z"/>
   <path class="fil6" d="M11718.32 15787.84c88.26,57.9 93.03,-9.97 91.45,141.09 -0.74,70.64 -0.4,141.32 -0.4,211.99 0,450.52 -14.71,237.63 -87.83,335.49 45.25,22.95 219.17,22.42 264.22,-0.19 -80.22,-104.98 -89.81,134.02 -89.81,-347.75 0,-359.39 -19.85,-276.36 89.98,-338.14 -38.84,-28.04 -236.91,-20.63 -267.61,-2.49z"/>
   <path class="fil6" d="M2300.51 15793.68l84.11 28.3c18.96,77.35 8.62,278.02 8.62,368.72 0.01,397.65 -29.06,193.1 -88.59,285.43 31.96,18.18 236.52,18.95 267.44,-0.41 -65,-109.67 -92.69,150.15 -92.71,-334.8 0,-335.68 -26.1,-290.77 90.61,-350.51 -19.37,-12.04 1.77,-4.71 -32.14,-12.66 -45.3,-10.62 -208.33,-8.77 -237.34,15.93z"/>
   <path class="fil6" d="M10271.92 15787.89c89.94,54.56 93.08,0.61 91.8,140.91 -0.64,70.7 -0.41,141.41 -0.41,212.12 0,429.01 -6.33,245.01 -90.82,335.26 37,22 209.76,10.68 266.12,10.74 -14.49,-83.83 -90.21,40.21 -90.35,-133.62 -0.05,-70.63 0.92,-141.62 0.92,-212.38 0,-387.32 -18.26,-285.42 90.98,-350.57 -37.85,-29.59 -49.05,-14.95 -136.64,-15.33 -54.82,-0.25 -89.99,-9.58 -131.6,12.87z"/>
   <path class="fil6" d="M5185.69 15793.54l86.01 28.95c17.08,86 6.8,271.34 6.8,368.21 0,57.87 4.1,131.81 -0.06,187.68 -7.67,102.88 -53.64,48.18 -88.18,97.89 40.51,22.22 223.83,26.61 268.23,-0.74 -89.12,-91.58 -93.65,128.74 -93.64,-334.61 0,-354.33 -23.94,-289.21 90.16,-350.57 -19.8,-13.26 2.9,-4.56 -30.65,-12.67l-110.6 -2.63c-51.57,-0.28 -90.64,-10.22 -128.07,18.49z"/>
   <path class="fil4" d="M6641.72 14061.03c173.75,-0.1 150.3,-27.55 254.32,-158.85 55.15,-69.61 139.57,-153.28 181.9,-226.2 -34.04,-3.69 -166.85,-8.35 -196.44,-2.75 -54.23,10.28 -64.06,64.48 -95.85,118.75 -31.69,54.05 -130.07,220.05 -143.93,269.05z"/>
   <path class="fil6" d="M19141.59 17052.64l79.01 29.22c15.53,80.03 5.94,250.95 5.99,341.05 0.17,348.25 -54.05,149.66 -80.93,244.26l427.13 0.6 24.28 -122.4c-0.72,-28.65 0.86,-17.96 -10.01,-33.85 -30.33,31.5 -47.6,179.15 -273.14,109.98 -22.21,-72.02 -10.89,-239.76 -10.91,-323.07 -0.05,-291.32 -2.83,-194.42 83.39,-248.47 -36.63,-26.67 -223.94,-14.49 -244.81,2.68z"/>
   <path class="fil6" d="M4957.21 17053.02l78.96 26.08c15.09,89.04 5.74,247.04 5.82,343.81 0.25,344.03 -55.61,153.27 -81.24,244.45l430.72 -3.98 19.65 -126.29c-4.11,-36.09 7.23,-3.19 -9.63,-24.84 -34.37,40.75 -30.57,87.65 -86.45,110.55 -47.38,19.41 -128.79,20.63 -173.14,-0.9 -53.54,-58.44 -23.84,-237.12 -23.87,-323.47 -0.19,-365.84 37.22,-160.62 83.5,-261.65 -55.69,-1.41 -206.52,-13.3 -244.32,16.24z"/>
   <path class="fil9" d="M4520.01 16116.52c305.57,50.9 315,-363.81 0.72,-301.3l-0.72 301.3z"/>
   <path class="fil9" d="M18498.19 17629.43c306.63,68.93 314.3,-323.56 -14.49,-277.35 -1.4,73.38 -13.45,214.91 14.49,277.35z"/>
   <path class="fil9" d="M15944.76 17368.55c261.57,40.17 297.47,-272.82 91.01,-300.55 -45.29,-6.07 -82.25,-7.42 -93.75,32 -7.95,27.32 -2.79,234.38 2.74,268.55z"/>
   <path class="fil9" d="M13495.18 17080.11l-6.73 288.12c127.1,20.81 223.62,-20.34 221.57,-156.8 -1.8,-118.71 -127.93,-183.73 -214.84,-131.32z"/>
   <path class="fil4" d="M19503.27 15192.09c24.75,170.68 297.5,145.73 268.74,-44.33 -25.55,-168.8 -293.78,-128.31 -268.74,44.33z"/>
   <path class="fil4" d="M10628.02 14079.45l88.35 1.54 292.57 -377.55 -145.02 -2.34c-43.43,21.43 -216.79,319.06 -235.9,378.35z"/>
   <path class="fil9" d="M18489.15 17073.22l-6.68 233.97c334.02,70.7 225.97,-336.49 6.68,-233.97z"/>
   <path class="fil4" d="M13401.38 13860.62c-136.72,49.64 -65.69,243.91 67.46,205.69 133.98,-38.43 71.36,-256.09 -67.46,-205.69z"/>
   <path class="fil9" d="M20362.15 16175.34l209.87 4.44c-14.06,-66.14 -64.78,-240.45 -99.74,-287.83l-110.13 283.39z"/>
   <path class="fil9" d="M12432.16 16179.4l209.12 -2.03c-15.65,-64.42 -63.2,-234.36 -101.25,-276.92l-107.87 278.95z"/>
   <path class="fil9" d="M11500.1 17392.28l182.3 3.91c-6.69,-62.01 -51.68,-209.59 -86.69,-249.94l-95.61 246.03z"/>
   <path class="fil9" d="M5902.03 17391.72l181.74 4.69c-4.56,-55.9 -54.86,-212.33 -86.91,-251.34l-94.83 246.65z"/>
   <path class="fil9" d="M20089.44 17395.86l179.25 -2.11c-6.88,-61 -51.47,-205.05 -86.17,-247.16l-93.08 249.27z"/>
   <path class="fil6" d="M15202.99 17681.99c-7.42,74.17 -51.88,37.47 -57.67,100.9 217.98,-54 74.23,-339.32 -4,-198.35 18.22,64.38 69.71,17 61.67,97.45z"/>
   <path class="fil10" d="M21240.86 15144.44c35.25,22.65 77.25,12.05 131.75,15.4l0.65 110.1 -563.19 0.08 -0.02 -112.28c54.62,0.03 87.03,9.27 127.7,-14.39l-139.37 8.94 2.88 122.92c56.12,14.53 503.67,12.25 574.94,3.29 14.39,-47.42 14.87,-82.19 -0.44,-131.93l-134.9 -2.13z"/>
   <path class="fil11" d="M16701.55 13837.72c-35.48,-21.77 -74.49,-11.12 -124.8,-14.69l-2.43 -125.25c-20.71,34.79 -18.69,88.88 -4.54,134.16l131.77 5.78z"/>
  </g>
 </g>
</svg>
