<?xml version="1.0" encoding="UTF-8"?>
<!DOCTYPE svg PUBLIC "-//W3C//DTD SVG 1.1//EN" "http://www.w3.org/Graphics/SVG/1.1/DTD/svg11.dtd">
<!-- Creator: CorelDRAW 2019 (64-Bit) -->
<svg xmlns="http://www.w3.org/2000/svg" xml:space="preserve" width="115.57mm" height="92.71mm" version="1.1" style="shape-rendering:geometricPrecision; text-rendering:geometricPrecision; image-rendering:optimizeQuality; fill-rule:evenodd; clip-rule:evenodd"
viewBox="0 0 11557 9271"
 xmlns:xlink="http://www.w3.org/1999/xlink"
 xmlns:xodm="http://www.corel.com/coreldraw/odm/2003">
 <defs>
  <style type="text/css">
   <![CDATA[
    .fil8 {fill:#002B3B}
    .fil3 {fill:#011B28}
    .fil4 {fill:#025366}
    .fil1 {fill:#028399}
    .fil6 {fill:#0499AD}
    .fil7 {fill:#0C4455}
    .fil2 {fill:#207F93}
    .fil0 {fill:#5CB4C2}
    .fil10 {fill:#78A3B4}
    .fil11 {fill:#8CB0BD}
    .fil5 {fill:#9BD7DF}
    .fil9 {fill:white}
   ]]>
  </style>
 </defs>
 <g id="Capa_x0020_1">
  <metadata id="CorelCorpID_0Corel-Layer"/>
  <g id="_3176754445808">
   <path class="fil0" d="M7327.85 3594.62l2356.78 -3535.62 -1371.48 -4.58 543.82 5.84c-558.37,873.66 -1181.82,1775.79 -1761.47,2648.32 -168.01,252.88 -227.04,202.97 -64.32,447.53 91.35,137.29 196.04,312.99 296.67,438.51z"/>
   <polygon class="fil0" points="4305.67,3594.21 4714.4,2983.16 2776.67,60.13 3321,60.05 3326.96,54.06 1952.1,57.52 "/>
   <polygon class="fil0" points="5391.77,1923.97 5814.55,1334.61 6226.74,1945.13 7483.69,62.04 6660.82,63.11 5813.84,1327.32 4973.2,60.63 4159.03,61.61 "/>
   <polygon class="fil1" points="6226.74,1945.13 5818.26,2563.98 5806.17,2587 6225.58,3188.5 6643.79,2573.67 8310.54,64.55 7483.69,62.04 "/>
   <path class="fil2" d="M6643.79 2573.67c46.83,82.48 115.3,175.39 169.01,256.11 101.95,153.19 127.15,109.95 28.75,258.36 -55.15,83.17 -318.37,456.7 -336.82,516.06l407.66 614.24 8.36 0 409.26 -616.59 -2.16 -7.23c-100.63,-125.52 -205.32,-301.22 -296.67,-438.51 -162.72,-244.56 -103.69,-194.65 64.32,-447.53 579.65,-872.53 1203.1,-1774.66 1761.47,-2648.32l-543.82 -5.84 -827.36 -0.11 -2.1 7.73 826.85 2.51 -1666.75 2509.12z"/>
   <polygon class="fil1" points="3321,60.05 4991.68,2565.21 5401.03,1948.96 5391.77,1923.97 4159.03,61.61 4149.81,52.46 3326.96,54.06 "/>
   <polygon class="fil0" points="3621.93,5867.84 3625.08,5866.89 4713.93,4211.8 4302.79,3603.04 2796.72,5866.49 "/>
   <polygon class="fil0" points="6920.75,4218.44 8008.27,5866.9 8011.47,5867.8 8834.17,5868.19 7330.01,3601.85 "/>
   <polygon class="fil2" points="4714.4,2983.16 4723.48,2983.16 4991.06,2575.22 4991.68,2565.21 3321,60.05 2776.67,60.13 "/>
   <polygon class="fil3" points="5132.11,4845.65 5412.87,5252.9 5814.31,5864.93 6220.5,5252.89 6501.81,4845.78 6088.01,4225.95 5815.1,4623.86 5537.35,4220.3 "/>
   <polygon class="fil4" points="3625.08,5866.89 4446.31,5865.82 5124.56,4845.65 4722.42,4211.8 4713.93,4211.8 "/>
   <polygon class="fil4" points="6508.74,4845.78 7187.03,5865.83 8008.27,5866.9 6920.75,4218.44 6912.39,4218.44 "/>
   <polygon class="fil5" points="4159.03,61.61 4973.2,60.63 5813.84,1327.32 6660.82,63.11 7483.69,62.04 7485.79,54.31 4149.81,52.46 "/>
   <polygon class="fil6" points="5806.17,2587 5399.07,3186.49 5134.62,3587.96 5137.35,3610.31 5538.39,4212.36 5813.67,3812.46 6225.58,3188.5 "/>
   <path class="fil4" d="M6225.58 3188.5l-411.91 623.96 276.17 400.28 414.89 -608.54c18.45,-59.36 281.67,-432.89 336.82,-516.06 98.4,-148.41 73.2,-105.17 -28.75,-258.36 -53.71,-80.72 -122.18,-173.63 -169.01,-256.11l-418.21 614.83z"/>
   <polygon class="fil7" points="4305.67,3594.21 4302.79,3603.04 4713.93,4211.8 4722.42,4211.8 5137.35,3610.31 5134.62,3587.96 4723.48,2983.16 4714.4,2983.16 "/>
   <polygon class="fil8" points="6089.84,4212.74 6088.01,4225.95 6501.81,4845.78 6508.74,4845.78 6912.39,4218.44 6504.73,3604.2 "/>
   <polygon class="fil2" points="5391.77,1923.97 5401.03,1948.96 5818.26,2563.98 6226.74,1945.13 5814.55,1334.61 "/>
   <polygon class="fil7" points="4991.68,2565.21 4991.06,2575.22 5399.07,3186.49 5806.17,2587 5818.26,2563.98 5401.03,1948.96 "/>
   <polygon class="fil0" points="4993.65,5869.19 6639.65,5869.18 6220.5,5252.89 5814.31,5864.93 5412.87,5252.9 "/>
   <polygon class="fil8" points="4722.42,4211.8 5124.56,4845.65 5132.11,4845.65 5537.35,4220.3 5538.39,4212.36 5137.35,3610.31 "/>
   <polygon class="fil7" points="3625.08,5866.89 3621.93,5867.84 4993.65,5869.19 5412.87,5252.9 5132.11,4845.65 5124.56,4845.65 4446.31,5865.82 "/>
   <polygon class="fil7" points="6220.5,5252.89 6639.65,5869.18 8011.47,5867.8 8008.27,5866.9 7187.03,5865.83 6508.74,4845.78 6501.81,4845.78 "/>
   <polygon class="fil8" points="4723.48,2983.16 5134.62,3587.96 5399.07,3186.49 4991.06,2575.22 "/>
   <path class="fil4" d="M8887.45 6991.83l0.58 710.46 -73.23 7.83 1.64 68.45 231.11 -0.77 0.08 -70.11 -76.7 -3.76 2.92 -572.47 419.11 647.41 104.95 -0.9 1.27 -786.84 72.28 -8.77 -1.13 -64.3 -228.26 -2.17 0.04 71.58 72.16 5.44 -2.29 506.82 -382.89 -587.94c-14.84,9.75 -180.76,3.57 -211.23,3.49l1.33 68.51c27.52,1.96 48.86,-3.87 68.26,8.04z"/>
   <path class="fil4" d="M945.24 6965.65c-35.97,-58.74 -51.2,-34.27 -152.76,-36.57 -105.53,-2.39 -76.21,-13.65 -86.02,65.96l72.35 10.73 -2.53 499.01 -370.75 -574.48c-49.33,-1.76 -241.02,-29.35 -217.93,45.71 29.47,95.84 72.18,-99.63 72.17,193.17 -0.01,174.79 -0.1,349.58 0,524.37l-86.74 64.57 17.57 21.28 225.16 0.15 17.95 -21.68 -81.16 -69.45 -6.2 -545.03 409.62 635.55 105.26 0.55 0.21 -773.77 83.8 -40.07z"/>
   <polygon class="fil7" points="5538.39,4212.36 5537.35,4220.3 5815.1,4623.86 6088.01,4225.95 6089.84,4212.74 5813.67,3812.46 "/>
   <path class="fil4" d="M9840.87 7482.37c-39.39,-354.5 300.36,-337.19 334.08,-13.69 36.91,353.99 -298.7,331.94 -334.08,13.69zm118.59 -327.46c-438.64,64.71 -349.44,700.81 109.55,638.28 413.11,-56.27 340.57,-704.69 -109.55,-638.28z"/>
   <path class="fil4" d="M3948.54 7461.7c127.07,-34.21 115.22,-1.61 112.1,102.68 -2.08,69.49 -17.41,127.95 -96.64,135.86 -144.12,14.4 -186.48,-192.51 -15.46,-238.54zm260.18 245.33c0.09,-90.8 11.58,-359.87 -18.24,-429.55 -74.87,-175.01 -290.95,-56.43 -316.29,-68.59 -19.91,-9.55 -33.9,-117.24 -84.28,43.92 -11.78,37.7 -42.59,174.06 40.82,89.53 101.11,-102.47 231.27,-128.84 229.43,58.06 -676.7,-34.43 -265.93,636.12 -0.54,316.7l16.88 62.59 197.29 -15.16 -65.07 -57.5z"/>
   <path class="fil4" d="M2518.33 7625.34c-50.4,150.7 -273.21,59.63 -203.55,-91.42 42.76,-92.72 288.61,-162.95 203.55,91.42zm-290.2 -279.51c107.59,31.85 47.38,-48.02 163.67,-75.97 88.32,-21.21 160.02,37.37 128.59,126.99 -129.57,25.01 -393.86,-18.4 -357.58,240.25 28.3,201.69 227.23,182.47 360.99,79.52l16.56 62.87 186.45 -1.64 11.27 -25.55 -64.39 -45.79c-0.46,-230.77 50.9,-694 -345.87,-486.49 -0.8,-39.58 23.24,-28.66 -16.44,-45.8 -36.63,-15.83 -32.68,-0.11 -43.25,33.16 -11.37,35.77 -35.36,103.75 -40,138.45z"/>
   <path class="fil4" d="M1298.62 7249.37c209.92,-59.74 307.43,423.2 117.16,475.56 -222.21,61.17 -319.79,-417.9 -117.16,-475.56zm369.39 294.27c68.61,-428.57 -568,-493.46 -628.79,-114.14 -69.37,432.81 567.47,497.13 628.79,114.14z"/>
   <path class="fil4" d="M4817.26 7012.58c23.66,-44.5 243.73,16.12 296.7,110.39 52.57,93.53 42.16,246.4 -30.37,327.42 -69.75,77.91 -240.28,110.8 -262.88,-26.21 -4.99,-30.19 -8.01,-403 -3.45,-411.6zm-177.29 735.22l5.62 31 258.49 -0.05 5.06 -31.91 -92.13 -15.59 -0.2 -187.38c503.26,111.77 559.92,-492.1 208.68,-577.45 -90.58,-22.02 -210.62,-11.1 -305.64,-13.7 -66.79,-1.82 -131.13,31.07 -40.33,48.21 68.52,12.93 45.8,10.55 44.98,106.83 -1.65,193.23 14.05,436.23 -2.55,617.59l-81.98 22.45z"/>
   <path class="fil4" d="M11204.74 7706.03c-22.25,12.95 -39.98,7.89 -69.86,7.87l0.01 61.42 308.08 -0.04 -0.36 -60.23c-29.81,-1.83 -52.79,3.97 -72.07,-8.42l-0.3 -788.11c-54.67,-8.73 -105.87,50.21 -151.06,77.98 -79.11,48.61 -112.68,16.67 -103.34,115.31l88.77 -29.06 0.13 623.28z"/>
   <path class="fil4" d="M6485.32 7550.45c-15.18,110.42 -78.2,212.57 -203.56,201.19 -141.65,-12.85 -115.38,-193.95 -115.4,-296.51 0,-56.21 -20.39,-135.43 32.76,-168.84 49.34,-31.01 113.07,-44.18 168.31,-21.35 104.56,43.2 131.68,185.28 117.89,285.51zm-280.93 -608.33l-197.87 83.69 10.36 31.48 61.48 -13.77c17.73,133.84 4,433.47 1.65,582.02 -3.15,197.93 243.25,206.17 366.11,118.88 126.64,-90 170.94,-285.36 103.57,-423.17 -98.31,-201.1 -240.59,-122.54 -398.85,-67.98l53.55 -311.15z"/>
   <path class="fil9" d="M4817.26 7012.58c-4.56,8.6 -1.54,381.41 3.45,411.6 22.6,137.01 193.13,104.12 262.88,26.21 72.53,-81.02 82.94,-233.89 30.37,-327.42 -52.97,-94.27 -273.04,-154.89 -296.7,-110.39z"/>
   <path class="fil9" d="M6485.32 7550.45c13.79,-100.23 -13.33,-242.31 -117.89,-285.51 -55.24,-22.83 -118.97,-9.66 -168.31,21.35 -53.15,33.41 -32.76,112.63 -32.76,168.84 0.02,102.56 -26.25,283.66 115.4,296.51 125.36,11.38 188.38,-90.77 203.56,-201.19z"/>
   <path class="fil9" d="M9840.87 7482.37c35.38,318.25 370.99,340.3 334.08,-13.69 -33.72,-323.5 -373.47,-340.81 -334.08,13.69z"/>
   <path class="fil9" d="M1298.62 7249.37c-202.63,57.66 -105.05,536.73 117.16,475.56 190.27,-52.36 92.76,-535.3 -117.16,-475.56z"/>
   <path class="fil4" d="M8136.36 7451.51c153.22,-30.14 150.6,-3.82 142.85,124.77 -4.6,76.24 -41.6,144.83 -123.5,155.3 -171.08,21.88 -225.05,-239.6 -19.35,-280.07zm229.46 269.36c0.18,-132 42.35,-461 -93.33,-516.24 -56.23,-22.88 -225.99,24.67 -228.71,22.17 -8.78,-8.06 -28.94,-85.99 -52.49,5.97 -7.38,28.84 -33.4,98.77 -13.53,116.21 58.35,14.73 46,-104.29 181.57,-110.94 116.44,-5.72 120.42,77.46 120.33,169.6 -731.51,-9.93 -223.54,628.01 -1.16,300.63l12.22 72.05 140.76 -2.8 5.74 -26.35 -71.4 -30.3z"/>
   <path class="fil4" d="M3215.3 7351.82c25.16,-58.21 121.25,-201.07 7.05,-158.6 -75.86,28.21 -106.62,-83.13 -198.05,90.52l-115.46 -102.4c-21.42,22.23 -99.87,115.71 -101.1,141.74l86.35 9.39 0.53 374.03 -64.37 45.77 11.34 26.06 269.7 -0.23 2.01 -51.63 -71.51 -11.22c20.29,-129.33 -101,-470.71 173.51,-363.43z"/>
   <path class="fil4" d="M5488.54 7197.71c-21.56,0.89 -106.56,26.23 -126.22,36.44 -100.9,52.44 28.04,36.51 36.07,53.43 11.06,23.33 1.75,275.51 2.57,324.55 4.29,259.08 229.03,194.02 374.7,90.01l3.45 77.7 149.21 -1.34 8 -23.39 -71.86 -34.55c0,-58.2 4.39,-514.02 -2.73,-530.74l-159.26 66.38 10.73 28.68 63.68 -7.82 -1.04 368.9c-62.06,69.82 -264.09,139.01 -285.1,-1.18 -15.44,-103.02 -1.82,-330.54 -2.2,-447.07z"/>
   <path class="fil4" d="M1970.84 7278.06c78.12,-8.29 111.79,26.2 110.47,-75.62l-111.1 -1.16 -15.13 -139.97 -203.98 195.91 70.43 25.46c-8.93,49.44 -22.92,445.12 40.44,492.24 54.94,40.85 149.25,18.36 202.82,-15.14 121.14,-75.76 -22.28,-62.09 -89.78,-60.73l-4.17 -420.99z"/>
   <path class="fil4" d="M3548.36 7180.07c-46.44,7.57 -108.24,30.14 -155.27,43.24 -135.55,37.76 0.94,70.2 2.77,82.02 5.11,66.04 -8.21,372.12 3.5,404.61l-60.25 21.54 4.43 48.31 255.01 -1.45 11.25 -26.36 -66.32 -44.89 4.88 -527.02z"/>
   <path class="fil4" d="M7804.34 7285.51c-66.47,-160.51 -425.05,-124.68 -483.17,143.01 -56.11,258.42 169.34,464.74 400.28,331.56 20.07,-11.57 116.95,-73.2 76.32,-98.21 -16.77,-10.32 -87.78,46.92 -130.81,57.39 -113.47,27.6 -208.43,-36.81 -252.94,-139.05 -100.66,-231.15 114.85,-484.67 330.58,-238.16l59.74 -56.54z"/>
   <path class="fil9" d="M3387.8 8292.57c32.52,197.89 321.73,188.32 282.01,-86.18 -30.23,-209.02 -328.57,-197.26 -282.01,86.18z"/>
   <path class="fil4" d="M6826.49 7086.89c-3.31,-162.51 65.59,-31.33 55.61,-145.4l-215.07 84.49 10.36 31.18 62.14 -13.23 1.82 681.92 -72.21 25.27 6.01 27.51 216.18 -0.01 6.02 -27.53 -70.39 -30.26 -0.47 -633.94z"/>
   <path class="fil9" d="M4939.86 8083.25c-7.91,56.14 -6.06,230.6 -2.41,291.74 5.45,91.25 154.79,38.91 192.09,-7.04 131.36,-161.8 -54.88,-371.21 -189.68,-284.7z"/>
   <path class="fil9" d="M581.41 8081.53c-7.65,29.36 -5.92,250.09 -3.68,292.56 4.84,91.54 148.65,41.24 189.81,-4.86 123.8,-138.69 -19.28,-370.55 -186.13,-287.7z"/>
   <path class="fil9" d="M7640.42 8071.71c-48.17,11.06 -30.66,63.09 -30.64,111.92 0.03,49.98 0.23,100.02 -0.08,149.99 -0.34,54.07 -9.22,88.57 58.27,89.22 41.69,0.41 81.71,-10.38 114.09,-36.81 129.53,-105.74 49.57,-358.22 -141.64,-314.32z"/>
   <path class="fil9" d="M7534.37 8966.6c40.45,176 294.77,137.04 245.28,-98.57 -38.97,-185.47 -300.91,-143.52 -245.28,98.57z"/>
   <path class="fil9" d="M5035.65 8760.86c-150.68,45.67 -104.17,360.7 80.16,308.82 149.76,-42.13 106.03,-365.24 -80.16,-308.82z"/>
   <path class="fil9" d="M8136.36 7451.51c-205.7,40.47 -151.73,301.95 19.35,280.07 81.9,-10.47 118.9,-79.06 123.5,-155.3 7.75,-128.59 10.37,-154.91 -142.85,-124.77z"/>
   <path class="fil4" d="M7152.52 7190.73c-30.22,6.52 -131.33,36.53 -146.35,56.12 -73.84,96.27 61.09,-49.19 58.15,91.24 -2.66,127.32 -1.22,255.04 0.59,386.24l-74.49 30.62 7.98 24.11 216.32 -0.01 7.74 -24.65 -73.04 -26.18 3.1 -537.49z"/>
   <path class="fil9" d="M3768.98 8760.25c-46.08,10.42 -29.43,56.01 -29.35,104.23 0.23,158.52 -21.72,207.89 55.08,206.47 34.17,-0.64 72.31,-11.23 99.03,-32.88 111.64,-90.46 41,-315.29 -124.76,-277.82z"/>
   <path class="fil6" d="M6431.49 8743.74c22.32,29.02 48.3,-0.29 52.59,59.03 2.39,32.98 -2.01,82.02 -3.32,116.46 -9.23,243.32 -29.58,106.35 -50.27,167.72l107.51 0.21c-14.83,-42.87 -42.63,23.6 -37.67,-113.76 1.71,-47.43 1.04,-103.42 6.08,-149.55 39.43,43.83 93.02,245.63 133.94,266.94 34.14,-23.88 95.8,-231.46 132.91,-285.02 2.67,53.33 2.66,107.38 4.31,160.83 4.33,140.31 -19.85,78.79 -33.66,120.78l126.06 -5.74c-50.51,-40.34 -47.52,32.48 -52.86,-162.37 -6.94,-253.67 10.25,-114.62 42.68,-178.32l-87.84 3.45 -126.94 279.39 -127.08 -281.78 -86.44 1.73z"/>
   <path class="fil6" d="M7640.42 8071.71c191.21,-43.9 271.17,208.58 141.64,314.32 -32.38,26.43 -72.4,37.22 -114.09,36.81 -67.49,-0.65 -58.61,-35.15 -58.27,-89.22 0.31,-49.97 0.11,-100.01 0.08,-149.99 -0.02,-48.83 -17.53,-100.86 30.64,-111.92zm-125.3 -14.48c65.73,23.88 48.05,58.04 48.05,187.68 0.01,251.86 -4.38,137.58 -50.87,189.82 17.75,9.24 373.31,68.14 386.77,-190.32 14.08,-270.59 -383.67,-187.3 -383.95,-187.18z"/>
   <path class="fil6" d="M2223.92 8238.38l0.4 -164.82c171.91,-34.2 166.75,192.66 -0.4,164.82zm1.26 22.9c105.42,-4.01 78.59,88.79 154.62,179.51l91.74 -5.24c-13.04,-19.51 -42.2,-4.31 -86.56,-80.83 -18,-31.04 -50.07,-74.89 -54.11,-109.02 35.59,-24.83 54.73,-26.38 68.97,-75.48 11.64,-40.14 2.35,-73.87 -31.63,-98.4 -40.06,-28.93 -211.22,-30.8 -242.33,-13.82 59.12,43.38 49.79,-38.83 49.76,193.72 -0.03,253.14 -10.76,128.25 -47.15,183.11 19.72,12.32 122.08,14.76 145.62,-0.05 -28.62,-28.95 -51.19,12.55 -51.98,-59.82 -0.4,-36.3 -2.58,-78.53 3.05,-113.68z"/>
   <path class="fil6" d="M581.41 8081.53c166.85,-82.85 309.93,149.01 186.13,287.7 -41.16,46.1 -184.97,96.4 -189.81,4.86 -2.24,-42.47 -3.97,-263.2 3.68,-292.56zm-98.24 -24.28c64.51,25.86 47.42,51.44 47.42,187.66 0.01,254.04 -3.55,138.04 -50.22,189.72 38.78,20.46 219.78,9.95 270.29,-14.17 69.77,-33.31 112.21,-98.86 116.63,-175.9 15.45,-269.82 -383.56,-187.57 -384.12,-187.31z"/>
   <path class="fil6" d="M4939.86 8083.25c134.8,-86.51 321.04,122.9 189.68,284.7 -37.3,45.95 -186.64,98.29 -192.09,7.04 -3.65,-61.14 -5.5,-235.6 2.41,-291.74zm-98.69 -25.99c30.42,12.73 49.41,13.9 49.51,64.46l-0.16 246.33c-1.31,76.91 -24.04,35.48 -52.41,66.17 14.8,8.4 374.38,70.41 388.08,-189.04 4.74,-89.62 -32.9,-153.87 -119.09,-182.51 -44.3,-14.71 -233.03,-21.62 -265.93,-5.41z"/>
   <path class="fil9" d="M2518.33 7625.34c85.06,-254.37 -160.79,-184.14 -203.55,-91.42 -69.66,151.05 153.15,242.12 203.55,91.42z"/>
   <path class="fil6" d="M3387.8 8292.57c-46.56,-283.44 251.78,-295.2 282.01,-86.18 39.72,274.5 -249.49,284.07 -282.01,86.18zm-59.29 -13.62c29.02,249.4 433,223.65 398.73,-68.05 -29.46,-250.69 -431.93,-217.21 -398.73,68.05z"/>
   <path class="fil9" d="M3948.54 7461.7c-171.02,46.03 -128.66,252.94 15.46,238.54 79.23,-7.91 94.56,-66.37 96.64,-135.86 3.12,-104.29 14.97,-136.89 -112.1,-102.68z"/>
   <path class="fil6" d="M9870.25 9065.96c-15.28,-34.15 -8.69,-111.57 -7.92,-151.71 179.85,-25.28 175.65,189.42 7.92,151.71zm-4.94 -304.25c119.95,-56.08 179.06,166.66 -3.66,127.98l3.66 -127.98zm-92.48 -11.38l43.68 14.75c8.87,44.31 3.61,137.94 3.65,187.91 0.12,188.87 -30.38,84.81 -44.62,132.2 337.62,46.23 308.6,-149.89 192.21,-185.72 22.74,-21.72 53.36,-31.06 57.72,-69.34 15.56,-136.7 -251.73,-82.71 -252.64,-79.8z"/>
   <path class="fil6" d="M4311.69 8058.28c71.72,54.11 50.25,-64.2 54.83,248.23 1.39,95.1 54.07,145.2 150.03,142.18 97.38,-3.06 144.79,-62.16 146.19,-155.96 4.28,-287.14 -10.98,-185.45 55.79,-232.88 -13.57,-11.82 -88.42,-10.65 -113.79,-8.41l-28.66 7.59c41.67,30.97 62.1,-8.22 62.6,76.49 0.76,130.3 22.95,278.52 -108.52,281.05 -140.86,2.71 -117.29,-138.44 -116.75,-280.99 0.3,-78.97 10.83,-49.26 55.08,-75.21 -24.39,-17.99 -128.46,-17.29 -156.8,-2.09z"/>
   <path class="fil6" d="M10950.12 8115.53c19.12,25.92 46.86,121.27 54.56,157.45l-114.81 -2.43 60.25 -155.02zm-107.61 298.27c-2.35,-32.18 19.87,-98.43 45.53,-117.12l122.53 1.25c15.34,21.83 24.81,57.56 33,85.24 15.53,52.48 -14.11,27.33 -36.5,51.63 19.77,11.51 129.08,8.76 147.36,0.47 -20.42,-31.7 -37.87,9.94 -66.44,-76.87 -18.09,-54.96 -97.77,-298.25 -111.24,-316.58 -38.69,6.49 -47.74,62 -61.11,94.59l-90.94 222.28c-33.99,83.39 -54.65,49.6 -72.45,76.48 20.39,10.31 110.81,13.8 133.28,-5.06l-43.02 -16.31z"/>
   <path class="fil6" d="M8041.03 8058.26c60.95,42.27 51.7,-35.84 51.7,193.46 0,222.77 1.3,139.09 -56.89,182.14 27.5,17.35 238.17,13.2 281.05,4.39 5.03,-25.67 22.06,-72.43 4.84,-93.31 -23.2,28.84 -19.68,57.43 -60.61,70.56 -31.08,9.97 -85.77,11.91 -111.05,-5.62 -18.9,-26.81 -11.4,-119.25 -9.88,-155.91 118.4,-9.83 136.88,31.24 140.01,-23.1 -29.62,-21.49 -100.92,-2.63 -140.66,-6.83 -0.08,-37.74 -13.09,-123.07 8.22,-147.37 18.85,-12.77 79.74,-10.15 105.7,-1.35 44.83,15.22 19.22,48.53 47.85,67.48 13.18,-18.82 11.14,-63.81 9.09,-89.78 -42.24,-4.7 -243.04,-10.15 -269.37,5.24z"/>
   <path class="fil6" d="M6611.02 8120.18c20.82,23.28 46.83,116.24 55.39,151.48l-114.39 1.11 59 -152.59zm-106.86 295.46c-2.51,-40.05 22.8,-79.39 34.22,-118.74l136.01 2.54c14.84,27.25 34.54,85.67 33.56,116.39 -25.85,15.34 -27.02,-0.43 -38.4,23.43l145.59 1.47c-2.23,-28.46 -36.62,0.74 -64.87,-80.84l-109.97 -317.04c-39.19,2.7 -49.86,59.88 -62.59,91.83 -14.89,37.41 -30.22,73.92 -45.49,111.04 -103.37,251.35 -68.78,131.69 -120.41,193.64l132.84 -4.05c-13.22,-21.79 -11.99,-3.76 -40.49,-19.67z"/>
   <path class="fil6" d="M9955.17 8058.32c58.2,43.16 52.49,-43.78 52.36,193.4 -0.14,264.92 -22.21,126.02 -56.07,182.51 16.62,12.11 243.13,9.97 279.58,4.78 5.78,-28.8 18.77,-75.64 10.13,-94.06 -31.63,20.63 -15.24,56.35 -66.69,71.07 -32.88,9.41 -84.52,10.2 -111.57,-6.09 -14.49,-29.44 -11.56,-122.05 -5.58,-156.36 28.45,-1.58 58.27,-0.46 86.95,2.12 46.5,4.17 47.66,13.81 50.14,-25.4 -28.92,-18.99 -100.65,-4.55 -139.67,-4.46 -0.45,-39.97 -8.18,-120.28 6.32,-153.46 23.33,-2.52 85.11,-4.47 105.75,2.86 38.6,13.72 25.87,45.09 47.31,67.71 14.73,-17.58 12.64,-61.7 12.45,-89.52 -38.47,-5.71 -249.6,-9.07 -271.41,4.9z"/>
   <path class="fil6" d="M3768.98 8760.25c165.76,-37.47 236.4,187.36 124.76,277.82 -26.72,21.65 -64.86,32.24 -99.03,32.88 -76.8,1.42 -54.85,-47.95 -55.08,-206.47 -0.08,-48.22 -16.73,-93.81 29.35,-104.23zm-113.96 -14.59c58.38,28.11 42.62,48.9 42.63,173.29 0.01,241.88 -21.12,109.16 -42.88,165.25 50.43,11.97 186.07,8.97 236.39,-14.56 129.7,-60.62 148.38,-265.08 1.41,-316.67 -41.61,-14.6 -200.55,-19.31 -237.55,-7.31z"/>
   <path class="fil6" d="M9084.25 8058.49c39.96,29.68 53.08,-7.31 52.74,70.17l-0.18 245.88c-2.74,69.02 -40.71,32.57 -56.37,59.63 16.36,12.26 242.45,9.76 279.23,5.01 4.1,-17.68 18.83,-75.99 10.21,-94.38 -28.27,20.1 -20.57,54.69 -61.56,69.74 -30.94,11.36 -83.56,9.63 -113.95,-1.4 -20.61,-34.6 -12.43,-112.82 -10.78,-157.31 94.29,-21.12 135.49,38 139.98,-25.58 -29.74,-18.79 -100.16,-4.4 -139.72,-4.51 -0.51,-40.02 -8.2,-120.31 6.39,-153.61 185.51,-16.83 111.71,56.95 161.23,68.88l4.02 -87.69c-38.49,-5.41 -249.94,-8.97 -271.24,5.17z"/>
   <path class="fil6" d="M5035.65 8760.86c186.19,-56.42 229.92,266.69 80.16,308.82 -184.33,51.88 -230.84,-263.15 -80.16,-308.82zm211.12 205.74c70.19,-247.87 -285.49,-321.45 -342.16,-102.33 -63.92,247.16 281.07,318.05 342.16,102.33z"/>
   <path class="fil6" d="M7534.37 8966.6c-55.63,-242.09 206.31,-284.04 245.28,-98.57 49.49,235.61 -204.83,274.57 -245.28,98.57zm-54.15 -20.42c24.21,214.9 381.72,197.17 352.66,-61.5 -24.58,-218.82 -382.13,-200.12 -352.66,61.5z"/>
   <path class="fil6" d="M6007.29 8325.97c-39.83,25.09 -35.44,128.33 -171.06,96.06 -77.74,-18.49 -112.68,-88.28 -117.83,-163.19 -5.27,-76.66 19.89,-156.96 97.84,-184.24 155.61,-54.45 146.45,64.59 177.43,81.02 13.08,-21.38 9.77,-72.65 6.6,-99.91 -150.69,-34.59 -342.64,6.44 -340.05,196.05 2.41,175.18 205.18,244.59 336.62,174.83 7.17,-26.39 21.69,-81.92 10.45,-100.62z"/>
   <path class="fil6" d="M1303.52 8329.5c-13.4,21.19 -5.62,33.49 -0.15,65.82 5.23,30.99 -0.19,34.89 30.39,44.24 164.28,50.22 265.38,-96.21 173.2,-180.29 -52.1,-47.52 -167.36,-52.1 -153.77,-141.67 7.35,-48.43 56.18,-60.51 97.9,-47.97 52.28,15.73 38.85,61.34 63.46,80.21 13.99,-18.66 12.01,-67.67 7.84,-94.29 -228.44,-49.07 -300.16,120.58 -122.9,202.49 54.52,25.2 144.22,85.59 68.01,150.64 -29.52,25.18 -78.45,20.79 -109.2,-0.88 -31.92,-22.49 -31.74,-54.73 -54.78,-78.3z"/>
   <path class="fil6" d="M1671.11 8148.75c48.02,-21.41 -28.62,-78.66 136.44,-77.32l-5.98 336.89c-31.9,34.35 -38.14,-2.44 -47.93,32.69 43.13,-0.19 123.47,11.79 155.76,-6.08 -21.2,-29.22 -52.77,7.53 -55.8,-53.1l1.78 -308.09c142.53,-20.4 92.09,58.94 138.06,74.48l3.76 -96.85 -333.48 1.96 7.39 95.42z"/>
   <path class="fil6" d="M8871 8434.9c-15.96,-27.73 -52.02,11.34 -56.98,-47.13l2.39 -315.22c147.23,-15.36 90.89,47.32 131.59,77.18 13.15,-19.71 10.57,-69.39 8.94,-98.36l-330.62 1.74c-1.7,27.96 -5.66,77.34 8.54,96.65 48.76,-48.93 -25.47,-79.93 132.49,-78.28 0.32,71.42 0.07,142.86 0.08,214.28 0.05,198.82 -25.89,99.13 -54.97,149.02 16.91,10.92 141.73,10.46 158.54,0.12z"/>
   <path class="fil6" d="M9742.01 8434.86c-15.58,-27.77 -52.06,11.7 -57.08,-46.97 -2.58,-30.19 0.29,-76.88 0.3,-108.94 0,-54.52 -5.82,-158.04 2.34,-206.56 148.63,-13.89 90.62,49.23 131.74,77.28 12.83,-20.05 10.12,-69.3 8.6,-98.3l-330.59 1.72c-1.82,28.09 -5.77,77.75 8.86,96.7 49.9,-55.3 -22.21,-80.35 132.12,-78.27 0.14,71.41 0.06,142.83 0.07,214.24 0.04,199.6 -22.85,97.46 -54.85,148.85 16.28,10.77 141.69,10.89 158.49,0.25z"/>
   <path class="fil6" d="M2869.18 8148.01c50.42,-17.04 -36.61,-76.87 137.29,-76.75 -0.21,71.49 0.01,143.01 0.03,214.5 0.02,214.2 -21.47,101.35 -54.62,149.24 15.98,9.4 140.54,11.63 158.94,-0.24 -25.51,-27.68 -52.9,10.56 -57.72,-46.46l1.38 -314.25c143.47,-24.34 94.04,56.07 138.2,74.93l3.69 -97.66 -333.1 2.59 5.91 94.1z"/>
   <path class="fil6" d="M7133.51 8765.48c47.54,-28.67 116.54,6.89 117.52,71.83 1.12,74.65 -51.67,97.16 -121.2,85.77l3.68 -157.6zm-88.3 -21.25c52.26,50.58 42.76,0.33 42.78,174.72 0.02,239.83 -18.73,110.68 -42.19,166.24 29.84,4.01 116.11,8.36 137.48,-3.73 -18.23,-13.21 -81.14,11.72 -50.19,-133.75 44.45,-11.32 79.37,12.74 130.43,-31.85 85.75,-74.88 32.69,-223.03 -218.31,-171.63z"/>
   <path class="fil6" d="M8473.48 8923.26c-3.03,-18.69 -5.85,-131.96 -1.5,-146.91 6.29,-21.56 26.51,-20.82 51.28,-17.5 112.94,15.17 93.3,186.38 -49.78,164.41zm-87.34 -178.87c22.35,22.61 43.55,16.63 43.58,65.01 0.03,36.42 -0.5,73.05 -0.5,109.55 0,239.91 -18.25,110.9 -42.35,166.1 29.84,4.24 116.47,8.38 137.65,-3.64 -18.92,-13.53 -80.56,12.2 -50.34,-133.83 44.68,-11.35 78.7,13.35 130.59,-31.51 33.58,-29.02 45.6,-70.94 31.17,-113.48 -26.97,-79.48 -186.84,-71.48 -249.8,-58.2z"/>
   <path class="fil6" d="M10791.61 8801.84c18.98,23.04 43.38,101.84 47.14,135.2l-98.06 1.16 50.92 -136.36zm-61.89 157.67l120.44 0.71 28.7 102.58 -34.33 23.75 129.4 -5.01c-17.18,-29.28 -31.3,19.01 -59.51,-66.58 -16.3,-49.44 -85.44,-264.79 -100.51,-281.46 -38.31,11.84 -104.69,215.42 -133.97,283.78 -26.87,62.75 -55.85,47.89 -62.03,69.51l116.83 -5.9 -42.63 -19.86 37.61 -101.52z"/>
   <path class="fil6" d="M8808.05 8744.64c54.91,58.53 47.55,-57.5 48.76,215.3 0.39,86.53 39.91,137.24 131.54,134.35 159.75,-5.05 128.27,-158 129.96,-277.95 1.18,-84.03 33.89,-38.77 51.96,-72.41 -35.27,-5.47 -105.79,-8.62 -129.49,4.84 41.51,25.36 55.88,-0.56 56.44,67.53 0.96,117.67 20.19,252.09 -101.08,249.73 -115.96,-2.26 -102.76,-119.45 -98.2,-256.64 2.27,-68.61 33.3,-34.4 48.95,-67.41l-138.84 2.66z"/>
   <path class="fil6" d="M9336.78 8746.98c50.48,41.95 46.34,-30.97 46.14,171.97 -0.2,191.6 4.97,128.33 -50,162.87 36.19,14.28 195.7,6.05 246.87,5.14 3.41,-14.81 6.83,-30.26 9.84,-45.18 8.85,-43.8 0.69,-36.5 -2.04,-40.63 -22.53,21.76 -21.25,95.62 -156.98,61.38 -10.07,-36.15 -9.21,-102.94 -4.04,-141.01 23.11,-1.44 46.74,-0.53 70.06,1.27 32.37,2.52 40.35,10.46 51.86,-10.65 -10.52,-27.65 9.56,-10.04 -21.58,-17.66l-102.18 2.26 0.28 -134.17c148.99,-22.41 115.66,35.55 142.43,60.48 11.78,-17.33 10.17,-56.62 8.12,-80.22 -41.1,-3.17 -212.09,-9.82 -238.78,4.15z"/>
   <path class="fil6" d="M6094.46 8801.66c19.15,22.07 43.76,102.8 47.42,136.72l-99.72 -2.14 52.3 -134.58zm-60.95 158.01l119.4 -0.01 29.37 102.89 -34.59 23.98 129.41 -4.97c-28.65,-48.56 -12.5,73.83 -92.81,-162.66 -12.89,-37.98 -48.12,-164.34 -67.33,-185.41 -38.6,12.05 -104.83,216.21 -133.73,284.07 -25.62,60.17 -56.15,48.4 -62.29,69.24l116.85 -5.9 -42.64 -20.16 38.36 -101.07z"/>
   <path class="fil6" d="M3031.79 8801.01c17.53,21.34 45.04,106.91 47.54,137.49l-99.42 -2.57 51.88 -134.92zm-94.63 260.84c0.82,-31.38 19.08,-72.87 33.85,-102.22l119.15 -0.03 30.23 103.95 -35.38 22.5 128.58 0c-8.6,-30.2 -31.56,7.88 -57.03,-66.48 -17.74,-51.76 -86.59,-272.77 -103.59,-285.41 -36.52,12.8 -102.91,215.62 -132.62,283.6 -27.18,62.2 -56.21,48.89 -62.01,68.84l117.04 -5.83 -38.22 -18.92z"/>
   <path class="fil6" d="M2026.01 8746.82c50.4,42.65 46.47,-31.79 46.19,172.13 -0.27,192.37 5.27,128.1 -50.17,162.88 33.37,12.8 198.84,5.97 246.97,5.14l13.21 -66.92c-0.76,-28.65 3.03,-6.04 -5.47,-18.83 -19.65,19.61 -24.2,97.45 -156.74,60.93 -10.35,-35.18 -8.9,-103.06 -4.17,-140.55 104.42,-7.31 113.74,26.01 122.28,-17.79 -20.16,-15.07 -33.22,-9.72 -63.26,-8.42 -20.18,0.86 -39.01,1.6 -60.62,0.32l0.22 -132.77c146.37,-24.98 118.1,37.94 142.08,60.17 12.09,-17.18 10.32,-56.28 8.63,-80.32 -38.27,-2.54 -215.81,-7.78 -239.15,4.03z"/>
   <path class="fil6" d="M1127.96 8750.3l43.53 15.3c8.48,43.61 3.54,132.04 3.5,180.58 -0.11,161.67 0.46,101.44 -49.51,135.3 33.63,16.35 194.83,5.8 247.24,5.94l12.43 -84.8c-29.2,10.52 -16.32,43.91 -53.75,59.69 -24.51,10.35 -78.64,10.43 -101.78,-0.17 -24.07,-25.71 -15.64,-101.49 -11.52,-140 23.47,-2.55 48.01,-1.29 71.79,0.57 40.15,3.14 43.94,13.38 51.32,-19 -21.9,-14.64 -34.2,-9.59 -64.98,-8.29 -20.27,0.86 -38.19,1.83 -59.46,-0.4l1.27 -130.21c126.6,-38.71 130.69,47.37 139.94,58.29 13.1,-16.55 11.53,-54.21 11.31,-79.61 -36.81,-4.5 -217.02,-9.37 -241.33,6.81z"/>
   <path class="fil6" d="M4184.39 8743.89c23.14,30.01 40.01,-4.03 45.59,45.44l-2.1 270.55 -47.32 26.62 246.32 0.54c6.34,-27.42 19.43,-68.11 7.68,-85.76 -25.62,23.61 -17.82,94.33 -160.93,61.16l-0.04 -140.96c79.04,-5.07 106.77,18.83 121.54,-9.34 -13.22,-35.96 -36.14,-11.71 -123.15,-16.29l0.17 -133.32c143.77,-20.68 96.46,16.36 146.83,61.05l3.44 -82.1 -238.03 2.41z"/>
   <path class="fil6" d="M4040.55 8058.58c47.23,35.32 52.19,-16.15 51.3,90.87 -0.6,71.63 12.21,365.62 -20.29,385.13 -48.79,10.23 -97.96,-45.96 -91.27,21.78 41.28,34.83 102.69,9.78 129.66,-30.48 33.75,-50.41 29.06,-99.88 28.57,-158.41 -3.58,-426.92 22.53,-244.53 49.76,-313.14 -29.68,-5.54 -125.6,-10.23 -147.73,4.25z"/>
   <path class="fil6" d="M7078.57 8052.61c-26.62,-1.87 -50.97,-0.62 -77.55,-1.11 -80.71,-1.48 -56.99,-0.81 -69.3,12.13l46.1 14.15c9.54,45.23 3.89,149.52 3.89,201.17 0.02,202.79 -9.35,107.43 -50.07,156.12 33.59,16.49 212.83,7.11 265.27,5.75 4.35,-26.69 22.05,-72.51 7.73,-97.48 -21.97,22.77 -25.57,59.18 -60.4,71.58 -31.78,11.32 -82.38,11.85 -108.24,-7.81 -14.74,-30.93 -7.41,-154.43 -7.42,-196.24 -0.02,-219.72 18.25,-100.05 49.99,-158.26z"/>
   <path class="fil6" d="M5757.31 8987.38c-45.65,17.53 -34.5,114.35 -159.96,82.38 -128.8,-32.83 -138.19,-263.65 -12.29,-307.32 135.96,-47.17 134.91,63.79 159.71,71.62l2.46 -84.89c-53.6,-28.22 -157.17,-16.44 -210.69,12.17 -61.08,32.63 -91.36,88.22 -90.94,157.66 1.11,182.27 214.12,202.21 297.97,156.06l13.74 -87.68z"/>
   <path class="fil6" d="M10526.67 8051.25l-147 4.13c26.14,30.38 50.79,1.73 51.23,66.37l-0.16 246.2c-1.42,75.04 -31.85,36.65 -51.81,66.99 23.42,13.87 221.79,8.32 266.04,5.27l14.94 -93.99c-38.6,14.44 -14.96,50.08 -65.59,68.08 -31.7,11.26 -84.29,12.6 -108.25,-5.94 -14.31,-16.3 -11.56,-269.76 -8.52,-300.29 6.15,-61.68 34.12,-21.37 49.12,-56.82z"/>
   <path class="fil6" d="M1562.19 8828.36c39.62,-18.04 -7.81,-86.07 120.79,-65.62 0.05,63.41 -0.03,126.83 0,190.25 0.08,160.99 -5.1,94.13 -49.57,128.86 25.15,13.93 117.96,11.04 141.41,-2.85l-50.11 -18.42 -0.45 -300.2c132.03,-2.63 73.28,17 117.03,69.13 12.77,-18.01 10.76,-61.89 8.71,-87.78l-294.39 1.46 6.58 85.17z"/>
   <path class="fil6" d="M670.17 8829.06c39.24,-58.02 -2.97,-74.94 115.53,-68.02 0,61.71 -0.01,123.43 0,185.14 0.01,161.77 2.2,102.87 -48.61,135.14 26.07,12.59 113.8,12.18 139.75,-0.15 -31.18,-19.25 -46.69,2.22 -50.18,-45.85l0.41 -275.39c123.31,0.05 72.07,3.41 115.67,69.27 13.73,-16.39 12.21,-59.66 11.73,-87.39l-293.36 0.96c-2.31,23.31 -6.9,68.67 9.06,86.29z"/>
   <path class="fil6" d="M6161.53 8058.58c48.28,31.67 50.9,-5.45 50.03,77.18 -0.41,38.64 -0.22,77.31 -0.22,115.96 0,246.44 -8.05,129.99 -48.05,183.52 24.76,12.55 119.89,12.26 144.54,-0.1 -43.88,-57.43 -49.13,73.31 -49.13,-190.23 0,-196.59 -10.86,-151.17 49.22,-184.97 -21.25,-15.34 -129.59,-11.28 -146.39,-1.36z"/>
   <path class="fil6" d="M1009.81 8061.78l46.02 15.47c10.37,42.32 4.71,152.09 4.71,201.7 0,217.52 -15.9,105.63 -48.46,156.14 17.48,9.94 129.38,10.36 146.3,-0.23 -35.57,-59.99 -50.71,82.14 -50.72,-183.14 0,-183.62 -14.28,-159.05 49.57,-191.74 -10.6,-6.58 0.96,-2.57 -17.59,-6.92 -24.78,-5.81 -113.96,-4.8 -129.83,8.72z"/>
   <path class="fil6" d="M5370.33 8058.61c49.19,29.84 50.91,0.33 50.21,77.08 -0.35,38.67 -0.22,77.35 -0.22,116.03 0,234.68 -3.47,134.03 -49.68,183.39 20.24,12.04 114.74,5.85 145.57,5.88 -7.93,-45.86 -49.35,22 -49.42,-73.09 -0.03,-38.64 0.5,-77.47 0.5,-116.18 0,-211.87 -9.99,-156.13 49.77,-191.77 -20.71,-16.18 -26.83,-8.17 -74.74,-8.38 -29.99,-0.14 -49.23,-5.25 -71.99,7.04z"/>
   <path class="fil6" d="M2588.06 8061.7l47.05 15.84c9.34,47.04 3.72,148.42 3.72,201.41 0,31.66 2.25,72.11 -0.03,102.67 -4.2,56.28 -29.35,26.35 -48.24,53.54 22.16,12.16 122.44,14.56 146.73,-0.4 -48.75,-50.1 -51.23,70.42 -51.22,-183.04 0,-193.83 -13.1,-158.2 49.31,-191.77 -10.83,-7.25 1.59,-2.49 -16.76,-6.93l-60.5 -1.44c-28.21,-0.15 -49.58,-5.59 -70.06,10.12z"/>
   <path class="fil4" d="M3384.54 7113.98c95.04,-0.05 82.22,-15.07 139.12,-86.89 30.16,-38.08 76.34,-83.85 99.5,-123.74 -18.62,-2.01 -91.27,-4.56 -107.46,-1.5 -29.66,5.62 -35.04,35.27 -52.43,64.95 -17.34,29.58 -71.15,120.38 -78.73,147.18z"/>
   <path class="fil6" d="M10222.2 8750.45l43.23 15.98c8.49,43.78 3.24,137.28 3.27,186.56 0.09,190.5 -29.57,81.87 -44.27,133.62l233.65 0.33 13.28 -66.96c-0.39,-15.67 0.47,-9.82 -5.47,-18.51 -16.6,17.23 -26.05,97.99 -149.42,60.16 -12.15,-39.4 -5.96,-131.16 -5.96,-176.73 -0.04,-159.36 -1.56,-106.35 45.61,-135.91 -20.04,-14.6 -122.5,-7.93 -133.92,1.46z"/>
   <path class="fil6" d="M2463.08 8750.66l43.19 14.26c8.26,48.71 3.14,135.14 3.18,188.07 0.14,188.19 -30.41,83.84 -44.43,133.72l235.61 -2.18 10.75 -69.07c-2.25,-19.75 3.95,-1.75 -5.27,-13.59 -18.8,22.28 -16.72,47.94 -47.29,60.47 -25.92,10.62 -70.45,11.28 -94.71,-0.49 -29.29,-31.97 -13.04,-129.71 -13.06,-176.95 -0.1,-200.12 20.36,-87.86 45.68,-143.13 -30.47,-0.77 -112.97,-7.27 -133.65,8.89z"/>
   <path class="fil9" d="M2223.92 8238.38c167.15,27.84 172.31,-199.02 0.4,-164.82l-0.4 164.82z"/>
   <path class="fil9" d="M9870.25 9065.96c167.73,37.71 171.93,-176.99 -7.92,-151.71 -0.77,40.14 -7.36,117.56 7.92,151.71z"/>
   <path class="fil9" d="M8473.48 8923.26c143.08,21.97 162.72,-149.24 49.78,-164.41 -24.77,-3.32 -44.99,-4.06 -51.28,17.5 -4.35,14.95 -1.53,128.22 1.5,146.91z"/>
   <path class="fil9" d="M7133.51 8765.48l-3.68 157.6c69.53,11.39 122.32,-11.12 121.2,-85.77 -0.98,-64.94 -69.98,-100.5 -117.52,-71.83z"/>
   <path class="fil4" d="M10420.05 7732.69c13.54,93.37 162.74,79.72 147,-24.25 -13.97,-92.33 -160.7,-70.18 -147,24.25z"/>
   <path class="fil4" d="M5565.12 7124.06l48.33 0.84 160.04 -206.53 -79.33 -1.28c-23.76,11.73 -118.59,174.54 -129.04,206.97z"/>
   <path class="fil9" d="M9865.31 8761.71l-3.66 127.98c182.72,38.68 123.61,-184.06 3.66,-127.98z"/>
   <path class="fil4" d="M7082.2 7004.35c-74.79,27.16 -35.93,133.42 36.9,112.52 73.29,-21.02 39.04,-140.09 -36.9,-112.52z"/>
   <path class="fil9" d="M10889.87 8270.55l114.81 2.43c-7.7,-36.18 -35.44,-131.53 -54.56,-157.45l-60.25 155.02z"/>
   <path class="fil9" d="M6552.02 8272.77l114.39 -1.11c-8.56,-35.24 -34.57,-128.2 -55.39,-151.48l-59 152.59z"/>
   <path class="fil9" d="M6042.16 8936.24l99.72 2.14c-3.66,-33.92 -28.27,-114.65 -47.42,-136.72l-52.3 134.58z"/>
   <path class="fil9" d="M2979.91 8935.93l99.42 2.57c-2.5,-30.58 -30.01,-116.15 -47.54,-137.49l-51.88 134.92z"/>
   <path class="fil9" d="M10740.69 8938.2l98.06 -1.16c-3.76,-33.36 -28.16,-112.16 -47.14,-135.2l-50.92 136.36z"/>
   <path class="fil6" d="M8067.71 9094.71c-4.06,40.58 -28.38,20.51 -31.54,55.2 119.24,-29.54 40.61,-185.61 -2.19,-108.5 9.97,35.21 38.13,9.3 33.73,53.3z"/>
   <path class="fil10" d="M11370.54 7706.63c19.28,12.39 42.26,6.59 72.07,8.42l0.36 60.23 -308.08 0.04 -0.01 -61.42c29.88,0.02 47.61,5.08 69.86,-7.87l-76.24 4.89 1.58 67.24c30.69,7.95 275.51,6.7 314.5,1.8 7.87,-25.94 8.13,-44.96 -0.24,-72.17l-73.8 -1.16z"/>
   <path class="fil11" d="M8887.45 6991.83c-19.4,-11.91 -40.74,-6.08 -68.26,-8.04l-1.33 -68.51c-11.33,19.03 -10.23,48.61 -2.48,73.39l72.07 3.16z"/>
  </g>
 </g>
</svg>
